<svg width="32" height="32" viewBox="0 0 32 32" fill="none" xmlns="http://www.w3.org/2000/svg">
<g clip-path="url(#clip0_302_3446)">
<path fill-rule="evenodd" clip-rule="evenodd" d="M27.3142 4.68642C33.5624 10.9349 33.5624 21.0657 27.3142 27.3142C21.0657 33.5624 10.9349 33.5624 4.68642 27.3142C-1.56181 21.0657 -1.56181 10.9349 4.68642 4.68642C10.9349 -1.56181 21.0657 -1.56181 27.3142 4.68642ZM24.3772 15.0912C24.8793 15.0912 25.2861 15.4982 25.2861 16.0001C25.2861 16.5021 24.879 16.9089 24.3772 16.9089H16.9092V24.3772C16.9092 24.8793 16.5021 25.2861 16.0003 25.2861C15.4985 25.2861 15.0917 24.879 15.0917 24.3772V16.9092H7.62316C7.12107 16.9092 6.71404 16.5021 6.71404 16.0003C6.71404 15.4985 7.12107 15.0915 7.62316 15.0915H15.0914V7.6229C15.0914 7.12108 15.4985 6.71404 16 6.71404C16.5021 6.71404 16.9089 7.12108 16.9089 7.6229V15.0912H24.3772Z" fill="#D24325"/>
</g>
<defs>
<clipPath id="clip0_302_3446">
<rect width="32" height="32" fill="white"/>
</clipPath>
</defs>
</svg>
