<svg width="24" height="25" viewBox="0 0 24 25" fill="none" xmlns="http://www.w3.org/2000/svg">
<g clip-path="url(#clip0_91_2520)">
<path d="M18.3289 11.9256H20.003C20.3815 11.9256 20.6894 11.6177 20.6894 11.2392V9.56509C20.6894 9.18662 20.3815 8.8787 20.003 8.8787H18.3289C17.9505 8.8787 17.6425 9.18662 17.6425 9.56509V11.2392C17.6425 11.6177 17.9505 11.9256 18.3289 11.9256ZM18.3457 9.58183H19.9863V11.2225H18.3457V9.58183ZM18.3289 16.3787H20.003C20.3815 16.3787 20.6894 16.0708 20.6894 15.6923V14.0182C20.6894 13.6397 20.3815 13.3318 20.003 13.3318H18.3289C17.9505 13.3318 17.6425 13.6397 17.6425 14.0182V15.6923C17.6425 16.0708 17.9505 16.3787 18.3289 16.3787ZM18.3457 14.035H19.9863V15.6756H18.3457V14.035ZM13.5516 11.9256H15.2257C15.6042 11.9256 15.9121 11.6177 15.9121 11.2392V9.56509C15.9121 9.18662 15.6042 8.8787 15.2257 8.8787H13.5516C13.1732 8.8787 12.8652 9.18662 12.8652 9.56509V11.2392C12.8652 11.6177 13.1732 11.9256 13.5516 11.9256ZM13.5684 9.58183H15.209V11.2225H13.5684V9.58183ZM5.6711 17.5762H3.99701C3.61854 17.5762 3.31062 17.8841 3.31062 18.2626V19.9367C3.31062 20.3151 3.61854 20.623 3.99701 20.623H5.6711C6.04957 20.623 6.35749 20.3151 6.35749 19.9367V18.2626C6.35749 17.8841 6.04957 17.5762 5.6711 17.5762ZM5.65437 19.9199H4.01375V18.2793H5.65437V19.9199ZM5.6711 8.8787H3.99701C3.61854 8.8787 3.31062 9.18662 3.31062 9.56509V11.2392C3.31062 11.6177 3.61854 11.9256 3.99701 11.9256H5.6711C6.04957 11.9256 6.35749 11.6177 6.35749 11.2392V9.56509C6.35749 9.18658 6.04957 8.8787 5.6711 8.8787ZM5.65437 11.2225H4.01375V9.58183H5.65437V11.2225ZM13.5516 16.2743H15.2257C15.6042 16.2743 15.9121 15.9664 15.9121 15.5879V13.9138C15.9121 13.5354 15.6042 13.2274 15.2257 13.2274H13.5516C13.1732 13.2274 12.8652 13.5354 12.8652 13.9138V15.5879C12.8652 15.9664 13.1732 16.2743 13.5516 16.2743ZM13.5684 13.9306H15.209V15.5712H13.5684V13.9306ZM21.0386 1.74527H19.5355V1.20775C19.5355 0.61825 19.0559 0.138672 18.4664 0.138672H18.305C17.7155 0.138672 17.236 0.61825 17.236 1.20775V1.74527H6.76409V1.20775C6.76409 0.61825 6.28451 0.138672 5.69501 0.138672H5.53357C4.94407 0.138672 4.4645 0.61825 4.4645 1.20775V1.74527H2.96145C1.9909 1.74527 1.20129 2.53487 1.20129 3.50542V22.3809C1.20129 23.3501 1.98982 24.1387 2.95911 24.1387H21.041C22.0103 24.1387 22.7988 23.3501 22.7988 22.3809V3.50542C22.7988 2.53487 22.0092 1.74527 21.0386 1.74527ZM17.9391 1.20775C17.9391 1.00595 18.1032 0.841797 18.305 0.841797H18.4665C18.6683 0.841797 18.8324 1.00595 18.8324 1.20775V1.74527H17.9391V1.20775ZM5.16767 1.20775C5.16767 1.00595 5.33182 0.841797 5.53362 0.841797H5.69506C5.89685 0.841797 6.06101 1.00595 6.06101 1.20775V1.74527H5.16771V1.20775H5.16767ZM22.0957 22.3809C22.0957 22.9624 21.6226 23.4355 21.041 23.4355H2.95906C2.37748 23.4355 1.90437 22.9624 1.90437 22.3809V22.3787C2.19893 22.6006 2.56507 22.7324 2.96145 22.7324H17.2153C17.6855 22.7324 18.1275 22.5493 18.46 22.2168L22.0957 18.5811V22.3809ZM18.1012 21.5812C18.1288 21.4675 18.1438 21.3488 18.1438 21.2267V18.88C18.1438 18.4375 18.5038 18.0774 18.9464 18.0774H21.2931C21.4152 18.0774 21.5338 18.0624 21.6476 18.0348L18.1012 21.5812ZM22.0957 6.76933H7.11565C6.92149 6.76933 6.76409 6.92673 6.76409 7.12089C6.76409 7.31505 6.92149 7.47245 7.11565 7.47245H22.0957V16.5717C22.0957 17.0143 21.7356 17.3743 21.2931 17.3743H18.9464C18.1161 17.3743 17.4407 18.0498 17.4407 18.88V21.2267C17.4407 21.6693 17.0806 22.0293 16.6381 22.0293H2.96145C2.37861 22.0293 1.90442 21.5552 1.90442 20.9723V7.47245H5.7094C5.90356 7.47245 6.06096 7.31505 6.06096 7.12089C6.06096 6.92673 5.90356 6.76933 5.7094 6.76933H1.90437V3.50542C1.90437 2.92258 2.37856 2.44839 2.9614 2.44839H4.4645V3.48208C4.4645 4.07158 4.94407 4.55116 5.53357 4.55116C5.72773 4.55116 5.88514 4.39375 5.88514 4.19959C5.88514 4.00544 5.72773 3.84803 5.53357 3.84803C5.33178 3.84803 5.16762 3.68387 5.16762 3.48208V2.44839H17.236V3.48208C17.236 4.07158 17.7155 4.55116 18.305 4.55116C18.4992 4.55116 18.6566 4.39375 18.6566 4.19959C18.6566 4.00544 18.4992 3.84803 18.305 3.84803C18.1032 3.84803 17.9391 3.68387 17.9391 3.48208V2.44839H21.0386C21.6215 2.44839 22.0957 2.92258 22.0957 3.50542V6.76933ZM5.6711 13.2274H3.99701C3.61854 13.2274 3.31062 13.5354 3.31062 13.9138V15.5879C3.31062 15.9664 3.61854 16.2743 3.99701 16.2743H5.6711C6.04957 16.2743 6.35749 15.9664 6.35749 15.5879V13.9138C6.35749 13.5353 6.04957 13.2274 5.6711 13.2274ZM5.65437 15.5712H4.01375V13.9306H5.65437V15.5712ZM8.77432 11.9256H10.4484C10.8269 11.9256 11.1348 11.6177 11.1348 11.2392V9.56509C11.1348 9.18662 10.8269 8.8787 10.4484 8.8787H8.77432C8.39585 8.8787 8.08793 9.18662 8.08793 9.56509V11.2392C8.08793 11.6177 8.39585 11.9256 8.77432 11.9256ZM8.79106 9.58183H10.4317V11.2225H8.79106V9.58183ZM13.5679 19.9199C13.5592 19.7335 13.4053 19.5851 13.2168 19.5851C13.0226 19.5851 12.8652 19.7425 12.8652 19.9367C12.8652 20.3151 13.1731 20.623 13.5516 20.623H15.2257C15.6041 20.623 15.9121 20.3151 15.9121 19.9367V18.2626C15.9121 17.8841 15.6041 17.5762 15.2257 17.5762H13.5516C13.1731 17.5762 12.8652 17.8841 12.8652 18.2626V18.7454C12.8652 18.9395 13.0226 19.0969 13.2168 19.0969C13.4109 19.0969 13.5683 18.9395 13.5683 18.7454V18.2793H15.2089V19.9199H13.5679ZM8.77432 16.2743H10.4484C10.8269 16.2743 11.1348 15.9664 11.1348 15.5879V13.9138C11.1348 13.5354 10.8269 13.2274 10.4484 13.2274H8.77432C8.39585 13.2274 8.08793 13.5354 8.08793 13.9138V15.5879C8.08793 15.9664 8.39585 16.2743 8.77432 16.2743ZM8.79106 13.9306H10.4317V15.5712H8.79106V13.9306ZM8.77432 20.623H10.4484C10.8269 20.623 11.1348 20.3151 11.1348 19.9367V18.2626C11.1348 17.8841 10.8269 17.5762 10.4484 17.5762H8.77432C8.39585 17.5762 8.08793 17.8841 8.08793 18.2626V19.9367C8.08793 20.3151 8.39585 20.623 8.77432 20.623ZM8.79106 18.2793H10.4317V19.9199H8.79106V18.2793Z" fill="#D24325"/>
</g>
<defs>
<clipPath id="clip0_91_2520">
<rect width="24" height="24" fill="white" transform="translate(0 0.138672)"/>
</clipPath>
</defs>
</svg>
