<svg width="36" height="36" viewBox="0 0 36 36" fill="none" xmlns="http://www.w3.org/2000/svg">
<g clip-path="url(#clip0_93_2751)">
<path d="M36 18C36 8.05887 27.9411 0 18 0C8.05887 0 0 8.05887 0 18C0 27.9411 8.05887 36 18 36C27.9411 36 36 27.9411 36 18Z" fill="#D96951"/>
<path d="M21.7215 9C21.7215 10.9417 21.2985 12.7935 20.4638 14.5012C20.3355 14.769 20.3152 15.0795 20.412 15.363C20.511 15.6465 20.718 15.8782 20.9857 16.0087L22.662 16.8188C21.267 19.2488 19.2487 21.2648 16.8187 22.662L16.0087 20.9835C15.8782 20.7135 15.6465 20.5088 15.363 20.4097C15.0795 20.313 14.769 20.331 14.5013 20.4615C12.7958 21.2985 10.944 21.7215 9 21.7215C8.379 21.7215 7.875 22.2255 7.875 22.8465L7.875 27C7.875 27.621 8.379 28.125 9 28.125C19.5457 28.125 28.125 19.5457 28.125 9C28.125 8.379 27.621 7.875 27 7.875H22.8465C22.2255 7.875 21.7215 8.379 21.7215 9Z" fill="#FAFAFA"/>
</g>
<defs>
<clipPath id="clip0_93_2751">
<rect width="36" height="36" fill="white" transform="matrix(0 -1 1 0 0 36)"/>
</clipPath>
</defs>
</svg>
