<svg width="20" height="20" viewBox="0 0 20 20" fill="none" xmlns="http://www.w3.org/2000/svg">
<path d="M0.660917 1.47024C0.484015 1.46603 0.31568 1.38575 0.192093 1.24665C0.0685062 1.10756 -0.000465605 0.92076 2.36589e-06 0.726404C0.00293358 0.534874 0.0735065 0.352089 0.196822 0.216637C0.320138 0.0811858 0.486547 0.0036677 0.660917 0.000448029H1.63764C2.20552 -0.00964997 2.76509 0.151121 3.25574 0.465346C4.1413 1.08223 4.2992 1.96375 4.52548 2.95791H19.3391C19.5142 2.95839 19.6821 3.03502 19.8059 3.17106C19.9298 3.3071 19.9996 3.49148 20 3.68387C19.9973 3.75966 19.9858 3.83477 19.9658 3.90738L18.2419 11.5532C18.2091 11.7148 18.1263 11.859 18.0076 11.9611C17.8888 12.0631 17.7415 12.1168 17.5908 12.1128H6.75729C6.99495 13.0802 7.23262 13.6005 7.55331 13.8419C7.944 14.1262 8.62771 14.1405 9.75582 14.1262H17.428C17.6033 14.1262 17.7714 14.2027 17.8953 14.3388C18.0192 14.475 18.0889 14.6596 18.0889 14.8521C18.0889 15.0447 18.0192 15.2293 17.8953 15.3655C17.7714 15.5016 17.6033 15.5781 17.428 15.5781H9.76722C8.36236 15.596 7.49797 15.5584 6.80449 15.0578C6.11102 14.5571 5.72033 13.6434 5.34755 12.0181L3.08319 2.586C3.08319 2.56811 3.08319 2.56811 3.06528 2.54845C3.03555 2.37887 2.97532 2.21751 2.88811 2.07382C2.8009 1.93013 2.68846 1.80699 2.55738 1.71163C2.27424 1.53716 1.95217 1.45352 1.62787 1.47024H0.660917ZM13.736 5.94041C13.7579 5.82402 13.8157 5.71949 13.8996 5.64444C13.9835 5.56939 14.0884 5.52841 14.1966 5.52841C14.3049 5.52841 14.4098 5.56939 14.4937 5.64444C14.5776 5.71949 14.6354 5.82402 14.6573 5.94041V8.74947C14.6354 8.86587 14.5776 8.9704 14.4937 9.04544C14.4098 9.12049 14.3049 9.16147 14.1966 9.16147C14.0884 9.16147 13.9835 9.12049 13.8996 9.04544C13.8157 8.9704 13.7579 8.86587 13.736 8.74947V5.94399V5.94041ZM10.9767 5.94041C10.9979 5.82305 11.0554 5.71739 11.1396 5.64145C11.2238 5.56551 11.3293 5.524 11.4382 5.524C11.5471 5.524 11.6527 5.56551 11.7368 5.64145C11.821 5.71739 11.8786 5.82305 11.8997 5.94041V8.74947C11.8786 8.86683 11.821 8.97249 11.7368 9.04843C11.6527 9.12438 11.5471 9.16589 11.4382 9.16589C11.3293 9.16589 11.2238 9.12438 11.1396 9.04843C11.0554 8.97249 10.9979 8.86683 10.9767 8.74947V5.94399V5.94041ZM8.21911 5.94041C8.24105 5.82402 8.29885 5.71949 8.38276 5.64444C8.46668 5.56939 8.57158 5.52841 8.6798 5.52841C8.78801 5.52841 8.89292 5.56939 8.97684 5.64444C9.06075 5.71949 9.11855 5.82402 9.14049 5.94041V8.74947C9.11855 8.86587 9.06075 8.9704 8.97684 9.04544C8.89292 9.12049 8.78801 9.16147 8.6798 9.16147C8.57158 9.16147 8.46668 9.12049 8.38276 9.04544C8.29885 8.9704 8.24105 8.86587 8.21911 8.74947V5.94399V5.94041ZM15.0106 4.40625H4.895L6.40241 10.6395H17.0926L18.4991 4.40625H15.0106ZM15.4468 16.4239C15.7688 16.4239 16.0835 16.5287 16.3512 16.7252C16.6189 16.9217 16.8276 17.2009 16.9508 17.5277C17.074 17.8544 17.1063 18.2139 17.0434 18.5608C16.9806 18.9076 16.8256 19.2262 16.5979 19.4763C16.3703 19.7264 16.0802 19.8966 15.7644 19.9656C15.4487 20.0346 15.1213 19.9992 14.8239 19.8639C14.5264 19.7286 14.2722 19.4994 14.0933 19.2053C13.9145 18.9113 13.819 18.5656 13.819 18.2119C13.819 17.7377 13.9905 17.2829 14.2958 16.9476C14.6011 16.6122 15.0151 16.4239 15.4468 16.4239ZM8.31678 16.4239C8.63875 16.4239 8.95348 16.5287 9.22118 16.7252C9.48888 16.9217 9.69753 17.2009 9.82074 17.5277C9.94395 17.8544 9.97619 18.2139 9.91337 18.5608C9.85056 18.9076 9.69552 19.2262 9.46786 19.4763C9.2402 19.7264 8.95014 19.8966 8.63437 19.9656C8.31859 20.0346 7.99128 19.9992 7.69383 19.8639C7.39637 19.7286 7.14213 19.4994 6.96326 19.2053C6.78439 18.9113 6.68892 18.5656 6.68892 18.2119C6.68892 17.7377 6.86042 17.2829 7.16571 16.9476C7.47099 16.6122 7.88505 16.4239 8.31678 16.4239Z" fill="white"/>
</svg>
