<svg width="65" height="42" viewBox="0 0 65 42" fill="none" xmlns="http://www.w3.org/2000/svg">
<g clip-path="url(#clip0_7_415)">
<path fill-rule="evenodd" clip-rule="evenodd" d="M30.7385 32.1916C33.267 37.7804 40.9265 37.9767 43.3492 32.2252C42.688 31.5182 42.2013 30.7551 41.7147 30.0032C41.6353 29.8798 41.556 29.7563 41.4767 29.6329C40.3076 30.6148 38.89 31.2433 37.0439 31.2377C35.0496 31.2321 33.5527 30.424 32.3202 29.2289C32.2461 29.1559 32.172 29.083 32.1033 29.01C31.9287 29.5319 31.7013 30.1491 31.4632 30.7327C31.2252 31.2882 30.9766 31.8156 30.7385 32.1916ZM50.3528 23.0958H51.6012L54.6533 19.4709C54.9231 19.1511 55.3939 19.123 55.6954 19.4092C55.9969 19.6954 56.0234 20.1948 55.7536 20.5146L53.5848 23.0958H60.234L58.0652 20.5146C57.7954 20.1948 57.8219 19.6954 58.1234 19.4092C58.4249 19.123 58.8957 19.1511 59.1655 19.4709L62.2176 23.0958H63.4078H63.4237H64.5398C64.7884 23.0958 64.9947 23.3146 64.9947 23.5784V24.9419C64.9947 25.2056 64.7884 25.4244 64.5398 25.4244H63.5718L63.0746 32.085C63.0587 32.2701 62.9317 32.4216 62.7572 32.4216H51.0034C50.8289 32.4216 50.7019 32.2701 50.686 32.085L50.1888 25.4244H49.2208C48.9722 25.4244 48.7659 25.2056 48.7659 24.9419V23.5784C48.7659 23.3146 48.9722 23.0958 49.2208 23.0958H50.3422H50.3528ZM59.0279 25.6882H60.4667V30.1098H59.0279V25.6882ZM56.2244 25.6882H57.6632V30.1098H56.2244V25.6882ZM53.4208 25.6882H54.8596V30.1098H53.4208V25.6882ZM22.3067 33.5439C22.6982 33.7066 23.0896 33.8693 23.4758 34.0321C25.8773 33.4092 28.4534 32.7583 29.9874 31.6192C30.1884 31.2994 30.4 30.8393 30.6063 30.3399C30.9184 29.588 31.204 28.7631 31.3839 28.202C30.6222 27.2537 29.9768 26.1876 29.3526 25.1327L27.2949 21.6649C26.5438 20.4753 26.1524 19.3868 26.1312 18.5002C26.1206 18.0794 26.1894 17.6978 26.3322 17.3667C26.4856 17.0132 26.7184 16.7214 27.041 16.497C27.1891 16.3904 27.3584 16.3006 27.5383 16.2277C27.406 14.3479 27.3531 11.98 27.443 9.99359C27.4854 9.52224 27.57 9.0509 27.6969 8.57956C28.2206 6.58757 29.5378 4.98838 31.167 3.88296C32.0662 3.27695 33.0501 2.81683 34.0763 2.50821C34.727 2.31182 33.5209 0.101001 34.1927 0.0224435C37.4565 -0.331064 42.7356 2.82805 45.0102 5.44288C46.1528 6.7503 46.8669 8.48978 47.0203 10.7848L46.8933 16.4409C47.4646 16.6261 47.8296 17.0076 47.9777 17.6305C48.1417 18.315 47.9618 19.2858 47.417 20.61C47.4064 20.6325 47.3958 20.6549 47.38 20.683L45.0366 24.7735C44.1744 26.2774 43.3016 27.7812 42.1643 28.9764C42.2648 29.1335 42.3706 29.2906 42.4711 29.4533C42.9366 30.1715 43.4021 30.8954 43.9998 31.5407C44.021 31.5631 44.0369 31.5856 44.0527 31.608C46.7505 33.6281 52.712 34.1162 55.2299 35.6088C56.0657 36.1026 56.8221 36.7311 57.4304 37.584C57.9806 38.3527 58.7793 40.3559 59.1655 42.0056C39.4613 42.0056 19.7624 42.0056 0.0634807 42.0056C-0.793453 36.9499 6.44288 34.5651 8.65927 32.5731C9.64844 31.6866 10.7804 30.6709 10.9074 30.3623C10.59 30.0257 10.2991 29.6665 10.0134 29.3186L8.78093 27.798L7.86052 27.826L6.10962 27.8766C4.61792 26.0248 4.70785 22.0914 4.85596 19.8188C5.5542 15.2513 7.22046 11.9631 9.9288 10.0609C11.7643 8.77034 12.8593 8.703 15.0069 8.69739C16.8795 8.69739 18.0273 8.6525 19.6248 9.76914C24.8299 13.4052 26.4433 21.9848 23.8989 27.7643H22.0793L21.9629 27.9102L21.8042 28.1122L21.016 29.1166C20.5558 29.7002 20.0903 30.2894 19.5455 30.8056C19.8735 31.2657 20.7939 32.1186 21.6085 32.8761C21.8518 33.1174 22.0898 33.3363 22.3067 33.5439ZM16.5621 37.6737C16.5833 37.6401 16.6044 37.6064 16.6309 37.5784C17.2392 36.7254 17.9956 36.097 18.8314 35.6032C19.2334 35.3675 19.7253 35.1543 20.2755 34.9579C20.5347 34.4753 20.741 33.9311 20.8679 33.3194C20.0956 32.6012 19.2863 31.8325 18.9213 31.3387L18.8843 31.3667C17.9956 32.012 16.9059 32.4385 15.4089 32.4329C14.0125 32.4272 12.9651 32.0176 12.1029 31.406C11.8913 31.2545 11.6903 31.0918 11.4998 30.9234C11.0872 31.5014 10.0822 32.3992 9.18295 33.2072L8.99252 33.3755C8.90259 36.6581 13.1026 38.493 16.5621 37.6737ZM28.7232 17.2265C28.2682 17.2433 27.9244 17.3443 27.6864 17.5126C27.5541 17.608 27.4536 17.7315 27.3901 17.8774C27.3214 18.0401 27.2896 18.2365 27.2949 18.4609C27.3108 19.123 27.6388 19.9928 28.2735 20.9916L28.2841 21.0084L30.3418 24.4761C31.167 25.8677 32.0292 27.2818 33.103 28.3254C34.1345 29.3242 35.3882 30.0032 37.0439 30.0088C38.8371 30.0144 40.1489 29.3074 41.2122 28.2525C42.3177 27.1527 43.1958 25.6433 44.0527 24.1395L46.3696 20.0938C46.8034 19.0501 46.9568 18.3487 46.8616 17.9391C46.8034 17.6978 46.5495 17.5743 46.1157 17.5519C46.0258 17.5463 45.9306 17.5463 45.8354 17.5463C45.7296 17.5519 45.6238 17.5575 45.5127 17.5687C45.4492 17.5743 45.391 17.5687 45.3329 17.5575C45.1266 17.5687 44.915 17.5519 44.6981 17.5182L45.4915 13.798C39.6094 14.78 35.2083 10.1451 28.9929 12.8721L29.4426 17.2601C29.1781 17.2713 28.9453 17.2657 28.7232 17.2265ZM9.12476 27.1078C7.67538 21.8333 8.35246 16.9852 12.2669 12.8329C12.9598 15.2064 14.5097 17.1647 17.1493 18.6124C18.4135 19.6056 19.6301 20.8064 20.815 22.1868C21.0266 21.2721 20.2279 20.1611 19.2546 19.0164C20.1485 19.4878 20.9737 20.1443 21.5609 21.4068C22.238 22.8713 22.2274 24.1114 22.0052 25.705C21.9364 26.1932 21.8359 26.6645 21.709 27.1078C21.6667 27.1303 21.6349 27.1639 21.6032 27.1976C21.4974 27.3379 21.3863 27.4725 21.2911 27.596C21.2541 27.6409 21.2223 27.6858 21.1271 27.8036L20.339 28.808C19.7359 29.5824 19.1223 30.3511 18.3394 30.9178C17.5883 31.4621 16.6679 31.8212 15.4037 31.8212C14.2399 31.8212 13.3565 31.4733 12.6318 30.9571C11.8754 30.424 11.2724 29.6946 10.6905 28.982L9.24642 27.2032C9.21469 27.1639 9.17237 27.1303 9.12476 27.1078Z" fill="#D24325"/>
</g>
<defs>
<clipPath id="clip0_7_415">
<rect width="65" height="42" fill="white"/>
</clipPath>
</defs>
</svg>
