<svg width="24" height="25" viewBox="0 0 24 25" fill="none" xmlns="http://www.w3.org/2000/svg">
<path d="M20.4853 3.65336C18.2188 1.38691 15.2053 0.138672 12 0.138672C8.79469 0.138672 5.78119 1.38691 3.51469 3.65336C1.24823 5.91986 0 8.93336 0 12.1387C0 15.344 1.24823 18.3575 3.51469 20.624C5.78119 22.8904 8.79469 24.1387 12 24.1387C15.2053 24.1387 18.2188 22.8904 20.4853 20.624C22.7518 18.3575 24 15.344 24 12.1387C24 8.93336 22.7518 5.91986 20.4853 3.65336ZM19.9881 20.1268C17.8544 22.2605 15.0175 23.4355 12 23.4355C8.98247 23.4355 6.14559 22.2605 4.01189 20.1268C1.87819 17.9931 0.703125 15.1562 0.703125 12.1387C0.703125 9.12114 1.87819 6.28427 4.01189 4.15056C6.14559 2.01686 8.98247 0.841797 12 0.841797C15.0175 0.841797 17.8544 2.01686 19.9881 4.15056C22.1218 6.28427 23.2969 9.12114 23.2969 12.1387C23.2969 15.1562 22.1218 17.9931 19.9881 20.1268Z" fill="#D24325"/>
<path d="M15.7555 21.029C14.6736 21.4866 13.53 21.7383 12.3516 21.7801V20.5478C12.3516 20.3537 12.1941 20.1963 12 20.1963C11.8058 20.1963 11.6484 20.3537 11.6484 20.5478V21.78C9.25297 21.6937 7.0776 20.7302 5.43425 19.2015L6.30238 18.3334C6.43967 18.1961 6.43967 17.9735 6.30238 17.8362C6.16508 17.6989 5.94247 17.6989 5.80517 17.8362L4.93705 18.7043C3.40836 17.061 2.44489 14.8857 2.35864 12.4902H3.59084C3.785 12.4902 3.94241 12.3328 3.94241 12.1386C3.94241 11.9445 3.785 11.7871 3.59084 11.7871H2.3585C2.44297 9.44661 3.368 7.25023 4.93311 5.56892L5.80522 6.44103C5.87385 6.5097 5.96385 6.54401 6.0538 6.54401C6.14375 6.54401 6.23375 6.5097 6.30238 6.44107C6.43967 6.30378 6.43967 6.08117 6.30238 5.94387L5.43055 5.07204C5.81769 4.71251 6.23652 4.38129 6.6861 4.0841C6.84805 3.97704 6.89253 3.75893 6.78547 3.59693C6.67836 3.43498 6.4603 3.39045 6.29835 3.49756C3.3867 5.42243 1.64844 8.65278 1.64844 12.1386C1.64844 14.9037 2.7252 17.5032 4.68036 19.4583C6.63552 21.4135 9.23502 22.4902 12 22.4902C13.3973 22.4902 14.753 22.2165 16.0294 21.6766C16.2082 21.601 16.2919 21.3947 16.2163 21.2159C16.1406 21.037 15.9343 20.9533 15.7555 21.029Z" fill="#D24325"/>
<path d="M19.3196 4.81899C17.3645 2.86383 14.765 1.78711 12 1.78711C10.4552 1.78711 8.96901 2.11927 7.58268 2.7743C7.40714 2.85727 7.33204 3.0668 7.41501 3.24234C7.49794 3.41794 7.70751 3.49294 7.88306 3.41002C9.06923 2.84953 10.3344 2.54353 11.6484 2.49717V3.72947C11.6484 3.92363 11.8058 4.08103 12 4.08103C12.1941 4.08103 12.3515 3.92363 12.3515 3.72947V2.49731C14.747 2.58356 16.9223 3.54708 18.5657 5.07577L17.6976 5.94389C17.5603 6.08119 17.5603 6.3038 17.6976 6.4411C17.7662 6.50972 17.8562 6.54403 17.9461 6.54403C18.0361 6.54403 18.1261 6.50972 18.1947 6.44105L19.0628 5.57292C20.5916 7.21627 21.555 9.39164 21.6413 11.7871H20.4091C20.2149 11.7871 20.0575 11.9445 20.0575 12.1387C20.0575 12.3328 20.2149 12.4902 20.4091 12.4902H21.6415C21.5845 14.0562 21.1483 15.588 20.3703 16.941C20.0038 17.5784 19.5646 18.1707 19.0656 18.7071L18.1947 17.8362C18.0574 17.6989 17.8348 17.6989 17.6975 17.8362C17.5602 17.9735 17.5602 18.1961 17.6975 18.3334L18.5682 19.2041C18.0886 19.6502 17.5646 20.0491 17.0027 20.3905C16.8368 20.4913 16.784 20.7076 16.8848 20.8735C16.951 20.9824 17.0669 21.0426 17.1856 21.0425C17.2478 21.0425 17.3108 21.026 17.3678 20.9914C18.8605 20.0844 20.1095 18.805 20.9798 17.2915C21.8772 15.7309 22.3515 13.9491 22.3515 12.1387C22.3515 9.37364 21.2748 6.77414 19.3196 4.81899Z" fill="#D24325"/>
<path d="M16.0103 7.49543L12.4544 11.0514C12.3167 10.9854 12.1626 10.9483 12 10.9483C11.8373 10.9483 11.6832 10.9854 11.5455 11.0514L9.621 9.12696C9.48371 8.98967 9.2611 8.98967 9.12385 9.12696C8.98655 9.26426 8.98655 9.48687 9.12385 9.62412L11.0483 11.5486C10.9823 11.6863 10.9453 11.8404 10.9453 12.003C10.9453 12.5846 11.4184 13.0577 12 13.0577C12.5815 13.0577 13.0546 12.5846 13.0546 12.003C13.0546 11.8404 13.0176 11.6863 12.9516 11.5486L16.5075 7.99259C16.6448 7.85529 16.6448 7.63268 16.5075 7.49539C16.3703 7.35814 16.1476 7.35814 16.0103 7.49543ZM12 12.3546C11.8061 12.3546 11.6484 12.1968 11.6484 12.003C11.6484 11.8092 11.8061 11.6515 12 11.6515C12.1938 11.6515 12.3515 11.8092 12.3515 12.003C12.3515 12.1969 12.1938 12.3546 12 12.3546Z" fill="#D24325"/>
<path d="M13.2422 16.1934C13.4363 16.1934 13.5938 16.036 13.5938 15.8418C13.5938 15.6476 13.4363 15.4902 13.2422 15.4902H10.7578C10.5637 15.4902 10.4062 15.6476 10.4062 15.8418C10.4062 16.036 10.5637 16.1934 10.7578 16.1934H13.2422Z" fill="#D24325"/>
</svg>
