<svg width="24" height="24" viewBox="0 0 24 24" fill="none" xmlns="http://www.w3.org/2000/svg">
<path fill-rule="evenodd" clip-rule="evenodd" d="M21.0427 0.257151C20.8552 0.0820065 20.6404 -0.0124533 20.4001 0.00132211C20.1598 0.00132211 19.945 0.0957819 19.7711 0.284701L18.3511 1.76851L22.328 5.63939L23.7597 4.12803C23.9336 3.95289 24 3.72264 24 3.48059C24 3.23854 23.9062 3.00829 23.7324 2.84692L21.0427 0.257151ZM1.63099 1.00102H11.4365V3.56718H2.84789C2.76585 3.56718 2.68967 3.6026 2.63498 3.6577C2.58029 3.7128 2.54513 3.78955 2.54513 3.8722V21.1328C2.54513 21.2154 2.58029 21.2922 2.63498 21.3473C2.68967 21.4024 2.76585 21.4378 2.84789 21.4378H19.9801C20.0622 21.4378 20.1384 21.4024 20.193 21.3473C20.2477 21.2922 20.2829 21.2154 20.2829 21.1328V12.8105H22.83V22.3568C22.83 22.8114 22.6444 23.2187 22.3495 23.5159C22.0545 23.813 21.6443 24 21.199 24H1.63099C1.17783 24 0.775454 23.813 0.480508 23.5159C0.185562 23.2207 0 22.8055 0 22.3568V2.64423C0 2.18767 0.185562 1.78228 0.480508 1.48513C0.7735 1.18797 1.18564 1.00102 1.63099 1.00102ZM13.5988 14.7725C13.0772 14.9476 12.5401 15.109 12.0186 15.2861C11.497 15.4612 10.9735 15.6364 10.4383 15.8115C9.19215 16.2169 8.51046 16.4452 8.36201 16.4865C8.21551 16.5278 8.30927 15.9473 8.61594 14.7331L9.60625 10.9154L9.68829 10.8307L13.5988 14.7705V14.7725ZM11.1357 9.31545L17.2748 2.89218L21.2517 6.74929L15.0442 13.2532L11.1357 9.31545Z" fill="#D24325"/>
</svg>
