<svg width="23" height="25" viewBox="0 0 23 25" fill="none" xmlns="http://www.w3.org/2000/svg">
<path d="M19.1087 0.702393C18.844 0.269141 18.3512 0 17.8228 0H12.3004V6.18345H22.4577L19.1087 0.702393Z" fill="white"/>
<path d="M10.7523 0H5.1777C4.64826 0 4.15549 0.269629 3.89077 0.703857L0.554138 6.18345H10.7522V0H10.7523Z" fill="white"/>
<path d="M0 7.6488V23.2772C0 24.2272 0.816863 25 1.82051 25H21.1795C22.1831 25 23 24.2272 23 23.2772V7.6488H0ZM15.0136 14.2211L11.0103 18.0106C10.8591 18.1537 10.6609 18.2255 10.4628 18.2255C10.2646 18.2255 10.0665 18.1537 9.91579 18.0106L8.03906 16.2345C7.7372 15.9487 7.7372 15.4847 8.03906 15.1985C8.34144 14.9122 8.83168 14.9122 9.13406 15.1985L10.4628 16.4568L13.9191 13.185C14.2215 12.8988 14.7117 12.8988 15.0136 13.185C15.316 13.4713 15.316 13.9348 15.0136 14.2211Z" fill="white"/>
</svg>
