<svg width="24" height="24" viewBox="0 0 24 24" fill="none" xmlns="http://www.w3.org/2000/svg">
<g clip-path="url(#clip0_104_2606)">
<path d="M5.96537 12.7714L5.82452 16.8203L4.27517 15.7812L2.72583 16.6425L3.04522 12.3027L0.851138 12.0058V21.1035L8.93313 22.0078V13.0957L5.96537 12.7714ZM19.4195 1.16207C19.5028 1.14645 19.5881 1.16207 19.6595 1.20504C19.7805 1.25387 19.8659 1.37106 19.8678 1.50973L19.9373 10.8828L23.4863 11.3418C23.5696 11.3261 23.6549 11.3418 23.7263 11.3847C23.8473 11.4336 23.9326 11.5507 23.9346 11.6894L24.0041 21.2968C24.01 21.414 23.9505 21.5312 23.8414 21.5957L19.8559 23.9355C19.8004 23.9765 19.729 24.0019 19.6536 24.0019C19.6357 24.0019 19.6159 24 19.6 23.998L9.25848 22.8652C9.23269 22.8632 9.20888 22.8593 9.18508 22.8535L0.323447 21.7324C0.144905 21.7246 0.00405544 21.5781 0.00405544 21.4023V11.6308C8.78426e-05 11.5 0.0754722 11.373 0.204419 11.3183L4.87031 9.29684V2.5859C4.86635 2.45504 4.94173 2.32809 5.07068 2.2734L10.2583 0.0273069C10.3119 0.00386941 10.3734 -0.00589622 10.4369 0.00191628L19.4195 1.16207ZM19.6159 11.5078L16.4974 13.3398L19.5941 13.7285L22.5598 11.8886L19.6159 11.5078ZM4.87031 10.8672V10.0195L1.56134 11.4511L3.45983 11.6894L4.87031 10.8672ZM15.9221 4.26364V12.9082L18.8997 11.1582L19.2628 10.8554L19.1993 2.23043L15.9221 4.26364ZM15.069 13.1211V4.17965L10.8376 3.62496L10.6928 7.77535L9.14342 6.73629L7.59407 7.59762L7.91346 3.25778L5.54084 2.95895V12.0566L15.069 13.1211ZM14.5513 1.20114L11.2978 3.01949L15.5293 3.55074L18.495 1.7109L14.5513 1.20114ZM8.33006 2.64449L11.4843 0.802698L10.4448 0.667932L6.43156 2.40426L8.33006 2.64449ZM19.9869 14.4414V23.0859L23.3296 21.123L23.2641 12.4082L19.9869 14.4414ZM19.1338 23.2988V14.3574L14.9024 13.8027L14.7576 17.9531L13.2082 16.914L11.6589 17.7754L11.9783 13.4355L9.78418 13.2246V22.3222L19.1338 23.2988Z" fill="#D24325"/>
</g>
<defs>
<clipPath id="clip0_104_2606">
<rect width="24" height="24" fill="white"/>
</clipPath>
</defs>
</svg>
