<svg width="25" height="25" viewBox="0 0 25 25" fill="none" xmlns="http://www.w3.org/2000/svg">
<path d="M24.9986 11.2155C24.9963 10.9836 24.9021 10.7621 24.7367 10.5993L22.2335 8.36106L13.0942 0.222059C12.9341 0.0790583 12.7268 0 12.512 0C12.2972 0 12.09 0.0790583 11.9299 0.222059L2.8138 8.36106L0.287375 10.5993C0.123009 10.7508 0.0212711 10.9581 0.00213279 11.1806C-0.0125895 11.3921 0.0492707 11.6018 0.176433 11.7714C0.303596 11.9411 0.487589 12.0595 0.694863 12.105C0.694863 12.1341 2.44124 12.105 2.49946 12.105V24.1275C2.49946 24.3588 2.59145 24.5806 2.75521 24.7441C2.91896 24.9076 3.14106 24.9995 3.37264 24.9995H9.28123C9.39832 25.0034 9.51501 24.9837 9.62433 24.9417C9.73365 24.8996 9.83338 24.836 9.91757 24.7546C10.0018 24.6732 10.0687 24.5758 10.1144 24.468C10.1601 24.3603 10.1836 24.2445 10.1835 24.1275V16.8954H14.8987V24.1275C14.8987 24.3588 14.9907 24.5806 15.1545 24.7441C15.3183 24.9076 15.5404 24.9995 15.7719 24.9995H21.6281C21.8597 24.9995 22.0818 24.9076 22.2456 24.7441C22.4093 24.5806 22.5013 24.3588 22.5013 24.1275V12.1224C22.5828 12.1224 24.3001 12.1224 24.3059 12.1224C24.5106 12.0785 24.6929 11.9629 24.8199 11.7967C24.9469 11.6304 25.0103 11.4243 24.9986 11.2155Z" fill="white"/>
</svg>
