<svg width="24" height="24" viewBox="0 0 24 24" fill="none" xmlns="http://www.w3.org/2000/svg">
<g clip-path="url(#clip0_302_3252)">
<path fill-rule="evenodd" clip-rule="evenodd" d="M15.3926 16.901C14.543 17.8749 13.5527 18.7487 12.4395 19.4551C12.3027 19.5593 12.1172 19.5736 11.9648 19.4715C10.3223 18.3792 8.94141 17.0664 7.85742 15.6413C6.36133 13.6792 5.41797 11.5028 5.0957 9.40801C4.76758 7.28262 5.07422 5.23889 6.08594 3.57696C6.48438 2.91954 6.99414 2.32133 7.61524 1.80478C9.04297 0.614479 10.6738 -0.0123181 12.2969 -6.79544e-05C13.8613 0.0121822 15.4043 0.622646 16.7383 1.89461C17.207 2.3397 17.6016 2.85012 17.9238 3.40342C19.0117 5.27564 19.2461 7.66441 18.7676 10.0859C18.2969 12.4767 17.125 14.9083 15.3926 16.8949V16.901ZM4.94531 15.2186C5.33203 15.2186 5.64648 15.5474 5.64648 15.9516C5.64648 16.3559 5.33203 16.6846 4.94531 16.6846H3.62891L1.89453 22.5381H22.0547L20.1719 16.6846H19.084C18.6973 16.6846 18.3828 16.3559 18.3828 15.9516C18.3828 15.5474 18.6973 15.2186 19.084 15.2186H21.1738L23.998 23.9999H0L2.60156 15.2186H4.94531ZM11.9883 3.77909C13.918 3.77909 15.4805 5.41448 15.4805 7.42758C15.4805 9.44476 13.916 11.0781 11.9883 11.0781C10.0586 11.0781 8.49805 9.44476 8.49805 7.42758C8.49414 5.41244 10.0586 3.77909 11.9883 3.77909Z" fill="#D24325"/>
</g>
<defs>
<clipPath id="clip0_302_3252">
<rect width="24" height="24" fill="white"/>
</clipPath>
</defs>
</svg>
