<svg width="24" height="24" viewBox="0 0 24 24" fill="none" xmlns="http://www.w3.org/2000/svg">
<g clip-path="url(#clip0_97_1313)">
<path fill-rule="evenodd" clip-rule="evenodd" d="M0.738281 12.9397H10.0889C10.4883 12.9397 10.8148 13.329 10.8148 13.804V22.9052C10.8148 23.381 10.4885 23.7699 10.0889 23.7699H0.738281C0.339258 23.7699 0.0123047 23.381 0.0123047 22.9052V13.804C0.0123047 13.329 0.339258 12.9397 0.738281 12.9397ZM13.9109 0H23.2617C23.6613 0 23.9877 0.388884 23.9877 0.864514V9.9657C23.9877 10.4413 23.6613 10.8298 23.2617 10.8298H13.9109C13.5115 10.8298 13.1855 10.4413 13.1855 9.9657V0.864514C13.1855 0.388884 13.5115 0 13.9109 0ZM0.725391 0H10.0766C10.476 0 10.8025 0.388884 10.8025 0.864514V9.9657C10.8025 10.4413 10.4762 10.8298 10.0766 10.8298H0.725391C0.326367 10.8298 0 10.4413 0 9.9657V0.864514C0 0.388884 0.326367 0 0.725391 0ZM13.9232 13.1704H23.274C23.673 13.1704 24 13.5593 24 14.0351V23.1363C24 23.6113 23.673 24.0002 23.274 24.0002H13.9232C13.5238 24.0002 13.1973 23.6113 13.1973 23.1363V14.0351C13.1973 13.5593 13.5238 13.1704 13.9232 13.1704Z" fill="white"/>
</g>
<defs>
<clipPath id="clip0_97_1313">
<rect width="24" height="24" fill="white"/>
</clipPath>
</defs>
</svg>
