<svg width="63" height="60" viewBox="0 0 63 60" fill="none" xmlns="http://www.w3.org/2000/svg">
<path fill-rule="evenodd" clip-rule="evenodd" d="M27.9419 34.7688C29.2134 37.3437 33.0689 37.4384 34.2891 34.7838C33.9558 34.455 33.7097 34.1064 33.4636 33.7578C33.4226 33.703 33.3816 33.6432 33.3406 33.5884C32.751 34.0417 32.0383 34.3305 31.1104 34.3305C30.1055 34.3256 29.3518 33.957 28.7314 33.4042C28.6956 33.3693 28.6597 33.3394 28.6238 33.3046C28.5366 33.5436 28.4238 33.8325 28.3008 34.0965C28.188 34.3505 28.0649 34.5945 27.9419 34.7688ZM59.2214 18.6868V39.6497H61.7952C62.2156 39.6497 62.5642 39.9834 62.5642 40.3918V59.2529C62.5642 59.6613 62.2207 59.995 61.7952 59.995H0.763916C0.343506 59.995 0 59.6613 0 59.2529V40.3918C0 39.9834 0.343506 39.6497 0.763916 39.6497H3.33765V18.0593C3.0813 17.87 2.84033 17.6658 2.60962 17.4467C1.36377 16.2364 0.594727 14.5679 0.594727 12.7351V10.1453V10.1104V10.1054C0.594727 9.97593 0.625488 9.84643 0.692139 9.73188L6.09082 0.388478C6.23438 0.139454 6.50098 0 6.77271 0H56.3914C56.7041 0 56.9707 0.174317 57.0989 0.428322L62.8872 9.70698C62.959 9.81655 62.9949 9.94106 63 10.0606C63.0051 10.0855 63.0051 10.1104 63.0051 10.1403V12.7301C63.0051 14.563 62.231 16.2314 60.9902 17.4417C60.4673 17.9447 59.8777 18.3631 59.2214 18.6868ZM53.2332 39.6497V18.7765C52.5051 18.4428 51.8438 17.9895 51.2849 17.4467C50.7927 16.9685 50.3774 16.4207 50.0493 15.818C49.7263 16.4207 49.3059 16.9685 48.8137 17.4467C47.5679 18.6569 45.8503 19.404 43.9636 19.404C42.0769 19.404 40.3594 18.6519 39.1135 17.4467C38.6213 16.9685 38.2061 16.4207 37.8779 15.818C37.5549 16.4207 37.1345 16.9685 36.6423 17.4467C35.3965 18.6569 33.679 19.404 31.7922 19.404C29.9055 19.404 28.188 18.6519 26.9421 17.4467C26.45 16.9685 26.0347 16.4207 25.7065 15.818C25.3835 16.4207 24.9631 16.9685 24.4709 17.4467C23.2251 18.6569 21.5076 19.404 19.6209 19.404C17.7341 19.404 16.0166 18.6519 14.7708 17.4467C14.2786 16.9685 13.8633 16.4207 13.5352 15.818C13.2122 16.4207 12.7917 16.9685 12.2996 17.4467C11.4792 18.2435 10.459 18.8412 9.31567 19.155V39.6547H19.5593C19.6567 38.7433 20.1899 37.6924 20.5283 37.2541C20.8359 36.8606 21.2153 36.5718 21.6357 36.3427C22.9021 35.6603 26.1885 35.4312 27.5522 34.5049C27.6548 34.3604 27.7625 34.1463 27.865 33.9172C28.0239 33.5685 28.1624 33.19 28.2546 32.931C27.8701 32.4927 27.5471 31.9997 27.2344 31.5166L26.1987 29.9178C25.8193 29.37 25.6245 28.8669 25.6143 28.4585C25.6091 28.2643 25.6399 28.09 25.7168 27.9356C25.7937 27.7762 25.9116 27.6368 26.0706 27.5322C26.1475 27.4824 26.2295 27.4425 26.3218 27.4077C26.2551 26.541 26.2295 25.4503 26.2705 24.5339C26.291 24.3148 26.3372 24.1006 26.3987 23.8815C26.6653 22.9651 27.3267 22.2279 28.147 21.7199C28.5981 21.441 29.0955 21.2269 29.6133 21.0874C29.9414 20.9978 29.5671 20.2806 29.9055 20.2457C31.5461 20.0813 33.9712 21.2368 35.1196 22.4421C35.6939 23.0447 36.0527 23.8466 36.1296 24.9025L36.063 27.5122C36.3501 27.5969 36.5347 27.7712 36.6064 28.0601C36.6885 28.3788 36.6013 28.8221 36.3245 29.4347C36.3193 29.4447 36.3142 29.4546 36.3091 29.4696L35.1299 31.3572C34.6992 32.0495 34.2583 32.7467 33.6841 33.2946C33.7354 33.3643 33.7866 33.439 33.8379 33.5137C34.0737 33.8474 34.3044 34.1811 34.6069 34.475C34.6172 34.4849 34.6274 34.4949 34.6326 34.5049C35.9912 35.4362 39.293 35.6603 40.5593 36.3476C40.9797 36.5767 41.3591 36.8656 41.6668 37.2591C42.0103 37.6973 42.5383 38.7482 42.6357 39.6597H53.2332V39.6497ZM2.68652 9.38325H12.925L14.8066 1.51905H7.229L2.68652 9.38325ZM37.801 1.51905L38.5855 9.38325H49.0342L46.8962 1.51905H37.801ZM37.0166 9.38325L36.2373 1.51905H27.3369L26.5679 9.38325H37.0166ZM25.0042 9.38325L25.7732 1.51905H16.4114L14.5298 9.38325H25.0042ZM48.5112 1.51905L50.6492 9.38325H60.8569L55.9504 1.51905H48.5112ZM50.8337 10.9023V12.7301C50.8337 14.1446 51.4285 15.4345 52.3923 16.3659C53.3511 17.2973 54.679 17.88 56.135 17.88C57.5911 17.88 58.919 17.3022 59.8777 16.3659C60.8364 15.4345 61.4363 14.1446 61.4363 12.7301V10.9023H50.8337ZM38.6624 10.9023V12.7301C38.6624 14.1446 39.2571 15.4345 40.221 16.3659C41.1797 17.2973 42.5076 17.88 43.9636 17.88C45.4197 17.88 46.7476 17.3022 47.7063 16.3659C48.665 15.4345 49.2649 14.1446 49.2649 12.7301V10.9023H38.6624ZM26.4961 10.9023V12.7301C26.4961 14.1446 27.0908 15.4345 28.0547 16.3659C29.0134 17.2973 30.3413 17.88 31.7974 17.88C33.2534 17.88 34.5813 17.3022 35.54 16.3659C36.4988 15.4345 37.0986 14.1446 37.0986 12.7301V10.9023H26.4961ZM14.3298 10.9023V12.7301C14.3298 14.1446 14.9246 15.4345 15.8884 16.3659C16.8472 17.2973 18.1751 17.88 19.6311 17.88C21.0872 17.88 22.415 17.3022 23.3738 16.3659C24.3325 15.4345 24.9324 14.1446 24.9324 12.7301V10.9023H14.3298ZM12.761 10.9023H2.15845V12.7301C2.15845 14.1446 2.75317 15.4345 3.71704 16.3659C4.67578 17.2973 6.00366 17.88 7.45972 17.88C8.91577 17.88 10.2437 17.3022 11.2024 16.3659C12.1611 15.4345 12.761 14.1446 12.761 12.7301V10.9023ZM24.7581 39.6497H37.6677L38.0164 35.8745C36.95 35.6703 35.822 35.5159 34.6377 34.8535C33.9097 37.9663 28.9622 38.4096 27.5369 34.9382C26.4756 35.4561 25.4451 35.755 24.2146 35.9392L24.7581 39.6497ZM3.62476 42.7675H58.9292C59.1753 42.7675 59.3804 42.9667 59.3804 43.2058V56.4489C59.3804 56.688 59.1753 56.8872 58.9292 56.8872H3.62476C3.37866 56.8872 3.17358 56.6929 3.17358 56.4489V43.2058C3.17871 42.9617 3.37866 42.7675 3.62476 42.7675ZM26.9268 27.8708C26.696 27.8808 26.5217 27.9256 26.4038 28.0053C26.3372 28.0501 26.2859 28.1049 26.2551 28.1746C26.2192 28.2494 26.2039 28.339 26.2039 28.4436C26.2141 28.7474 26.3782 29.1508 26.696 29.609L26.7012 29.614L27.7368 31.2127C28.1521 31.8552 28.5879 32.5077 29.1262 32.9858C29.644 33.449 30.2747 33.7578 31.1104 33.7628C32.0127 33.7628 32.6741 33.439 33.2073 32.9509C33.7661 32.4429 34.2019 31.7506 34.6377 31.0584L35.8015 29.1956C36.0168 28.7125 36.0989 28.3938 36.0476 28.2045C36.0168 28.09 35.8887 28.0352 35.6733 28.0252C35.6272 28.0252 35.5811 28.0203 35.5298 28.0252C35.4785 28.0252 35.4221 28.0302 35.3657 28.0352C35.335 28.0402 35.3042 28.0352 35.2734 28.0302C35.1709 28.0352 35.0632 28.0302 34.9556 28.0153L35.3555 26.302C32.3972 26.7552 30.1824 24.6186 27.0498 25.8737L27.2754 27.8957C27.1575 27.8908 27.0396 27.8858 26.9268 27.8708Z" fill="#D24325"/>
</svg>
