<svg width="191" height="169" viewBox="0 0 191 169" fill="none" xmlns="http://www.w3.org/2000/svg">
<g clip-path="url(#clip0_302_3489)">
<path d="M182.539 168.775L182.285 168.68C182.229 168.659 176.667 166.526 174.061 161.691C171.455 156.856 172.731 151.034 172.744 150.975L172.804 150.71L173.059 150.806C173.114 150.827 178.677 152.959 181.282 157.795C183.888 162.63 182.612 168.452 182.599 168.51L182.539 168.775ZM174.478 161.466C176.681 165.554 181.077 167.65 182.19 168.128C182.402 166.934 183.066 162.104 180.865 158.02C178.664 153.936 174.267 151.837 173.153 151.357C172.941 152.552 172.277 157.382 174.478 161.466Z" fill="#3F3D56"/>
<path d="M176.052 159.995C180.735 162.814 182.538 168.413 182.538 168.413C182.538 168.413 176.75 169.442 172.067 166.623C167.384 163.804 165.581 158.205 165.581 158.205C165.581 158.205 171.37 157.176 176.052 159.995Z" fill="#D24325"/>
<path d="M100.664 90.5722C100.891 90.221 101.19 89.9217 101.54 89.694C101.891 89.4663 102.286 89.3153 102.699 89.2509C103.112 89.1865 103.534 89.2101 103.937 89.3203C104.34 89.4304 104.715 89.6246 105.038 89.89C105.14 89.9745 105.236 90.066 105.325 90.1639L116.987 88.4651L117.636 79.6903C117.686 79.0172 118.001 78.3913 118.511 77.9505C119.022 77.5096 119.687 77.2899 120.36 77.3396C121.033 77.3893 121.658 77.7044 122.099 78.2156C122.539 78.7268 122.759 79.3921 122.709 80.0653C122.708 80.0809 122.707 80.0965 122.705 80.1121L121.569 92.4247L121.563 92.4521C121.415 92.9254 121.119 93.3384 120.718 93.6297C120.317 93.9211 119.832 94.0752 119.337 94.0694L105.62 93.8324C105.567 93.9138 105.51 93.9923 105.448 94.0676C105.183 94.3908 104.852 94.6543 104.478 94.8407C104.104 95.0271 103.694 95.1323 103.277 95.1494C102.859 95.1665 102.443 95.0951 102.054 94.9399C101.666 94.7847 101.315 94.5492 101.024 94.2488C100.965 94.1882 100.909 94.1257 100.857 94.0612C100.461 93.5741 100.23 92.9745 100.195 92.3479C100.161 91.7214 100.325 91.0999 100.664 90.5722Z" fill="#FFB7B7"/>
<path d="M124.175 165.388L120.849 165.388L119.267 152.55L124.175 152.551L124.175 165.388Z" fill="#FFB7B7"/>
<path d="M125.023 168.614L114.299 168.613V168.478C114.299 167.37 114.739 166.308 115.522 165.524C116.304 164.741 117.366 164.301 118.473 164.301H118.473L125.024 164.301L125.023 168.614Z" fill="#2F2E41"/>
<path d="M147.416 162.37L144.268 163.445L138.629 151.806L143.275 150.22L147.416 162.37Z" fill="#FFB7B7"/>
<path d="M149.26 165.15L139.11 168.614L139.066 168.485C138.709 167.437 138.782 166.289 139.27 165.295C139.758 164.301 140.621 163.541 141.669 163.184L141.669 163.184L147.869 161.068L149.26 165.15Z" fill="#2F2E41"/>
<path d="M127.837 53.1452C127.837 53.1452 124.527 52.0513 122.399 56.4272C120.271 60.8032 116.96 65.6167 116.96 65.6167L118.852 66.0543C118.852 66.0543 119.325 62.9912 120.507 62.5536L120.034 66.4919C120.034 66.4919 134.222 71.0867 140.607 66.0543L140.37 64.5227C140.37 64.5227 141.316 64.7415 141.316 66.0543L142.025 65.3979C142.025 65.3979 141.316 64.0851 139.188 62.3348C137.791 61.1859 137.311 59.0002 137.146 57.6336C137.015 56.4767 136.519 55.3915 135.73 54.5356C134.316 53.019 131.739 51.407 127.837 53.1452Z" fill="#2F2E41"/>
<path d="M129.058 68.4341C132.397 68.4341 135.104 65.7254 135.104 62.3839C135.104 59.0425 132.397 56.3337 129.058 56.3337C125.719 56.3337 123.011 59.0425 123.011 62.3839C123.011 65.7254 125.719 68.4341 129.058 68.4341Z" fill="#FFB7B7"/>
<path d="M120.996 73.4161L119.897 73.0494C119.897 73.0494 117.698 73.9661 117.698 75.6162C117.698 77.2663 117.332 83.8665 117.332 83.8665L122.279 84.4165L120.996 73.4161Z" fill="#CBCBCB"/>
<path d="M140.672 109.479C140.216 108.967 139.959 108.309 139.947 107.624C139.935 106.939 140.169 106.272 140.607 105.745L137.521 79.8833C137.49 79.2734 137.703 78.6765 138.112 78.2234C138.522 77.7704 139.094 77.4983 139.703 77.4669C140.313 77.4355 140.91 77.6473 141.363 78.0558C141.817 78.4644 142.09 79.0363 142.122 79.646C142.123 79.6545 142.123 79.6629 142.123 79.6714L144.884 105.561C144.984 105.662 145.077 105.77 145.16 105.884C145.382 106.191 145.541 106.538 145.628 106.906C145.715 107.274 145.73 107.655 145.67 108.028C145.61 108.402 145.477 108.76 145.279 109.082C145.08 109.404 144.821 109.683 144.515 109.905C144.483 109.928 144.451 109.95 144.418 109.972C144.064 110.207 143.661 110.36 143.241 110.421C142.82 110.482 142.391 110.449 141.984 110.324C141.477 110.17 141.022 109.877 140.672 109.479Z" fill="#FFB7B7"/>
<path d="M137.846 83.8665L142.793 83.3165C142.793 83.3165 142.426 76.7162 142.426 75.0662C142.426 73.4161 140.228 72.4994 140.228 72.4994L139.128 72.8661L137.846 83.8665Z" fill="#CBCBCB"/>
<path d="M121.729 93.0241C121.729 93.0241 117.515 100.734 117.515 110.084C117.515 119.434 117.148 162.336 117.148 162.336C117.148 162.336 122.645 164.903 125.943 161.786L128.875 114.301L140.418 160.869C140.418 160.869 145.914 161.969 148.48 160.136L143.533 127.685C143.533 127.685 141.517 97.2503 136.02 95.0502C130.524 92.8502 121.729 93.0241 121.729 93.0241Z" fill="#2F2E41"/>
<path d="M122.524 62.4223C124.665 60.8722 126.397 59.0868 127.543 56.9631C127.543 56.9631 131.472 61.3304 133.872 61.5488C136.273 61.7672 134.09 56.308 134.09 56.308L129.726 55.2161L125.579 55.6528L122.306 57.8365L122.524 62.4223Z" fill="#2F2E41"/>
<path d="M135.104 71.3994C135.104 71.3994 135.279 71.3057 124.844 71.686L120.477 72.8895L119.897 73.0494C119.897 73.0494 120.446 84.0498 121.912 86.0666C123.378 88.0833 123.012 89.1834 122.645 89.3667C122.279 89.55 121.363 89.1834 121.912 90.1001C122.462 91.0168 123.195 90.4667 122.462 91.0168C121.729 91.5668 121.363 93.5835 121.363 93.5835L137.486 95.7836C137.486 95.7836 138.036 88.6333 139.502 84.9665C140.968 81.2997 141.334 79.833 141.334 79.833L140.235 72.4994L135.104 71.3994Z" fill="#CBCBCB"/>
<path d="M104.45 40.1267H103.523V14.7103C103.523 10.8089 101.974 7.06728 99.2167 4.30856C96.4597 1.54984 92.7205 6.28892e-06 88.8215 0L35.0075 0C31.1085 -1.0691e-05 27.3692 1.54981 24.6123 4.30852C21.8553 7.06722 20.3064 10.8088 20.3064 14.7102V154.146C20.3064 158.048 21.8552 161.789 24.6122 164.548C27.3692 167.307 31.1084 168.857 35.0074 168.857H88.8214C90.752 168.857 92.6637 168.476 94.4473 167.737C96.2309 166.998 97.8515 165.914 99.2167 164.548C100.582 163.182 101.665 161.561 102.403 159.776C103.142 157.991 103.523 156.078 103.523 154.146V58.2185H104.45L104.45 40.1267Z" fill="#3F3D56"/>
<path d="M100.394 14.8137V154.045C100.395 155.486 100.112 156.914 99.5624 158.246C99.0123 159.578 98.2054 160.789 97.1878 161.809C96.1701 162.829 94.9616 163.639 93.6312 164.191C92.3009 164.744 90.8748 165.029 89.4343 165.031H35.3422C32.4325 165.033 29.6411 163.878 27.5821 161.821C25.5232 159.763 24.3653 156.972 24.3633 154.06V14.8137C24.3623 13.372 24.645 11.9442 25.1955 10.6119C25.7459 9.27959 26.5532 8.0688 27.5712 7.04867C28.5893 6.02854 29.7981 5.21904 31.1288 4.6664C32.4595 4.11376 33.886 3.82879 35.3268 3.82778H41.9016C41.5786 4.62024 41.4553 5.48005 41.5426 6.33143C41.6299 7.18281 41.9251 7.99964 42.4023 8.70995C42.8794 9.42026 43.5238 10.0022 44.2787 10.4046C45.0336 10.807 45.8758 11.0174 46.7311 11.0173H77.5613C78.4166 11.0174 79.2588 10.807 80.0137 10.4046C80.7686 10.0022 81.413 9.42026 81.8901 8.70995C82.3673 7.99964 82.6625 7.18281 82.7498 6.33143C82.8371 5.48005 82.7138 4.62024 82.3908 3.82778H89.4147C92.3239 3.82517 95.1149 4.97906 97.1739 7.03562C99.2328 9.09217 100.391 11.8829 100.394 14.7939L100.394 14.8137Z" fill="white"/>
<path d="M100.394 35.4125V30.67H93.2204V4.50596C92.0021 4.05574 90.7134 3.82609 89.4146 3.82777H88.4809V30.67H63.5988V11.0173H58.8594V30.67H38.0058V3.82779H35.3422C34.6456 3.8267 33.9504 3.89261 33.2663 4.0246V30.67H24.3633V35.4125H33.2663V46.3819L24.3634 51.525V57.0025L33.2663 51.8594V84.4968H24.3633V89.2392H33.2663V136.427H24.3633V141.169H33.2663V164.834C33.9504 164.966 34.6456 165.032 35.3422 165.031H38.0058V141.169H58.8594V165.031H63.5988V141.169H88.4809V165.031H89.4146C90.7134 165.032 92.0021 164.803 93.2204 164.352V141.169H100.394V136.427H93.2204V115.797H100.33V111.054H93.2204V89.2392H100.394V84.4968H93.2204V55.5679H100.394V50.8254H93.2204V35.4125L100.394 35.4125ZM52.2551 35.4125L38.0059 43.6454L38.0057 35.4125H52.2551ZM38.0057 49.1206L58.8593 37.0725V84.4968H38.0057V49.1206ZM38.0057 136.427V89.2392H58.8593V136.427H38.0057ZM88.4809 136.427H63.5988V115.797H88.4809V136.427ZM88.4809 111.054H63.5988V89.2392H88.4809V111.054ZM88.4809 84.4968H63.5988V55.5679H88.4809V84.4968ZM88.4809 50.8254H63.5988V35.4125H88.4809V50.8254Z" fill="#E5E5E5"/>
<path d="M104.358 50.9131C104.358 65.9734 77.1064 99.5232 77.1064 99.5232C77.1064 99.5232 49.8545 65.9734 49.8545 50.9131C49.8545 43.6809 52.7257 36.7449 57.8364 31.631C62.9471 26.5171 69.8787 23.6441 77.1064 23.6441C84.334 23.6441 91.2656 26.5171 96.3763 31.631C101.487 36.7449 104.358 43.6809 104.358 50.9131Z" fill="#D24325"/>
<path d="M93.2207 49.7275C93.2207 52.9166 92.2756 56.0341 90.505 58.6857C88.7344 61.3373 86.2177 63.404 83.2732 64.6244C80.3287 65.8448 77.0887 66.1642 73.9629 65.542C70.837 64.9198 67.9658 63.3842 65.7122 61.1291C63.4586 58.8741 61.9238 56.001 61.3021 52.8732C60.6803 49.7454 60.9994 46.5033 62.2191 43.557C63.4387 40.6107 65.5041 38.0924 68.154 36.3206C70.804 34.5489 73.9195 33.6032 77.1066 33.6032C79.2218 33.6022 81.3164 34.0181 83.2709 34.8272C85.2255 35.6363 87.0016 36.8226 88.4979 38.3185C89.9943 39.8144 91.1815 41.5906 91.9918 43.5456C92.8022 45.5006 93.2198 47.5962 93.2207 49.7127V49.7275Z" fill="white"/>
<path d="M77.0507 56.0926C80.3662 56.0926 83.054 53.4032 83.054 50.0855C83.054 46.7679 80.3662 44.0784 77.0507 44.0784C73.7351 44.0784 71.0474 46.7679 71.0474 50.0855C71.0474 53.4032 73.7351 56.0926 77.0507 56.0926Z" fill="#D24325"/>
<path d="M85.7633 63.8055C83.1754 65.4521 80.172 66.3265 77.1052 66.3261C74.0384 66.3257 71.0352 65.4505 68.4478 63.8031C68.9859 61.9208 70.122 60.2652 71.6843 59.0866C73.2465 57.908 75.1499 57.2706 77.1064 57.2709C79.0629 57.2712 80.9661 57.9091 82.5281 59.0881C84.09 60.2671 85.2257 61.9231 85.7633 63.8055Z" fill="#D24325"/>
<path d="M77.1064 119.204C81.1636 119.204 84.4526 115.913 84.4526 111.854C84.4526 107.794 81.1636 104.503 77.1064 104.503C73.0492 104.503 69.7603 107.794 69.7603 111.854C69.7603 115.913 73.0492 119.204 77.1064 119.204Z" fill="#D24325"/>
<path d="M190.763 169H0.236973C0.174124 169 0.113849 168.975 0.0694077 168.931C0.0249667 168.886 0 168.826 0 168.763C0 168.7 0.0249667 168.64 0.0694077 168.595C0.113849 168.551 0.174124 168.526 0.236973 168.526H190.763C190.826 168.526 190.886 168.551 190.931 168.595C190.975 168.64 191 168.7 191 168.763C191 168.826 190.975 168.886 190.931 168.931C190.886 168.975 190.826 169 190.763 169Z" fill="#CBCBCB"/>
</g>
<defs>
<clipPath id="clip0_302_3489">
<rect width="191" height="169" fill="white"/>
</clipPath>
</defs>
</svg>
