<svg width="214" height="140" viewBox="0 0 214 140" fill="none" xmlns="http://www.w3.org/2000/svg">
<path d="M185.371 123.691C187.911 123.254 190.194 121.876 191.764 119.83C191.919 119.628 192.226 119.879 192.07 120.082C190.433 122.207 188.055 123.637 185.41 124.085C185.158 124.128 185.12 123.733 185.371 123.691V123.691Z" fill="white"/>
<path d="M195.211 104.293C195.554 104.655 195.981 104.925 196.455 105.081C196.928 105.236 197.433 105.272 197.924 105.184C198.175 105.138 198.213 105.533 197.963 105.579C197.42 105.673 196.863 105.633 196.339 105.463C195.816 105.292 195.342 104.996 194.959 104.6C194.92 104.565 194.895 104.518 194.89 104.466C194.885 104.414 194.9 104.362 194.932 104.321C194.965 104.28 195.013 104.255 195.065 104.25C195.118 104.244 195.17 104.26 195.211 104.293Z" fill="white"/>
<path d="M175.847 139.681H175.931V139.688L175.951 139.681H181.263C179.68 139.41 178.1 139.199 176.517 139.504C176.48 139.51 176.446 139.517 176.41 139.527C176.249 139.557 176.088 139.597 175.928 139.641C175.918 139.644 175.904 139.648 175.894 139.651C175.88 139.655 175.866 139.662 175.854 139.671C175.845 139.672 175.837 139.676 175.831 139.681H175.847Z" fill="white"/>
<path d="M192.736 132.995C195.027 134.176 197.68 134.45 200.165 133.762C200.411 133.693 200.504 134.079 200.258 134.147C197.671 134.858 194.911 134.568 192.529 133.333C192.302 133.216 192.51 132.878 192.736 132.995Z" fill="white"/>
<path d="M212.271 123.431C212.327 123.926 212.506 124.4 212.79 124.809C213.075 125.218 213.456 125.551 213.901 125.776C214.129 125.891 213.921 126.229 213.695 126.114C213.204 125.863 212.783 125.496 212.468 125.044C212.153 124.593 211.953 124.071 211.886 123.524C211.875 123.473 211.884 123.42 211.911 123.376C211.938 123.331 211.981 123.299 212.032 123.285C212.083 123.273 212.137 123.281 212.181 123.309C212.226 123.336 212.259 123.38 212.271 123.431Z" fill="white"/>
<path d="M106.145 55.6621C106.236 44.5792 106.686 33.3892 107.498 22.0921C107.511 21.8679 107.528 21.6469 107.545 21.4227C107.973 15.5415 108.497 9.63909 109.118 3.7155V3.68202C109.117 2.70567 108.729 1.76947 108.039 1.07909C107.348 0.388698 106.412 0.000582628 105.436 0H6.69058C5.71753 0.00191184 4.78463 0.388158 4.09501 1.07464C3.40539 1.76112 3.01491 2.69225 3.00856 3.66528C2.15165 11.8226 1.47996 19.9398 0.993485 28.0168C0.973401 28.2813 0.960017 28.5424 0.946628 28.8068C0.705623 32.8001 0.513711 36.7834 0.370893 40.7566C0.360851 40.9909 0.350807 41.2253 0.34746 41.4596C-0.566412 65.8379 0.323048 90.2503 3.00856 114.497C3.0156 115.47 3.40642 116.4 4.09598 117.086C4.78555 117.772 5.71805 118.158 6.69058 118.159H105.436C106.412 118.159 107.348 117.771 108.039 117.08C108.729 116.39 109.117 115.454 109.118 114.477V114.441C108.632 110.133 108.206 105.797 107.839 101.433C107.786 100.794 107.733 100.154 107.682 99.515C107.427 96.3719 107.205 93.2165 107.016 90.0489C106.975 89.4095 106.939 88.7702 106.905 88.1309C106.547 81.7911 106.313 75.4022 106.202 68.9643C106.189 68.3249 106.179 67.689 106.169 67.0463C106.129 63.9032 106.116 60.7478 106.132 57.5801C106.132 56.9408 106.135 56.3015 106.145 55.6621Z" fill="#F0F0F0"/>
<path d="M135.896 25.1046C135.896 24.1283 135.508 23.1921 134.817 22.5017C134.127 21.8113 133.191 21.4232 132.214 21.4226H33.469C32.496 21.4245 31.5631 21.8108 30.8735 22.4972C30.1838 23.1837 29.7934 24.1149 29.787 25.0879C26.4531 56.8771 25.9008 88.104 28.1335 118.159C28.4046 121.878 28.7215 125.578 29.0841 129.259C29.2782 131.231 29.4846 133.197 29.7033 135.157C29.7301 135.411 29.7569 135.666 29.787 135.92C29.7941 136.893 30.1849 137.823 30.8744 138.509C31.564 139.195 32.4965 139.58 33.469 139.582H132.214C133.191 139.581 134.127 139.193 134.817 138.503C135.508 137.813 135.896 136.876 135.896 135.9V135.863C131.903 100.459 131.903 63.2069 135.896 25.1381V25.1046Z" fill="white"/>
<path d="M135.896 25.1046C135.896 24.1283 135.508 23.1921 134.817 22.5017C134.127 21.8113 133.191 21.4232 132.214 21.4226H33.469C32.496 21.4245 31.5631 21.8108 30.8735 22.4972C30.1838 23.1837 29.7934 24.1149 29.787 25.0879C26.4531 56.8771 25.9008 88.104 28.1335 118.159C28.4046 121.878 28.7215 125.578 29.0841 129.259C29.2782 131.231 29.4846 133.197 29.7033 135.157C29.7301 135.411 29.7569 135.666 29.787 135.92C29.7941 136.893 30.1849 137.823 30.8744 138.509C31.564 139.195 32.4965 139.58 33.469 139.582H132.214C133.191 139.581 134.127 139.193 134.817 138.503C135.508 137.813 135.896 136.876 135.896 135.9V135.863C131.903 100.459 131.903 63.2069 135.896 25.1381V25.1046ZM135.227 135.92C135.221 136.715 134.901 137.476 134.337 138.037C133.772 138.597 133.01 138.912 132.214 138.913H33.469C32.6704 138.911 31.9049 138.594 31.3402 138.029C30.7754 137.464 30.4577 136.699 30.4565 135.9V135.863C30.433 135.649 30.4096 135.431 30.3862 135.217C30.1552 133.169 29.9399 131.115 29.7401 129.055C29.3887 125.443 29.0774 121.811 28.8063 118.159C26.5736 88.1208 27.1226 56.914 30.4565 25.1381V25.1046C30.4577 24.306 30.7754 23.5405 31.3402 22.9758C31.9049 22.411 32.6704 22.0933 33.469 22.0921H132.214C133.01 22.0923 133.774 22.4075 134.338 22.9688C134.903 23.5301 135.222 24.2919 135.227 25.0879C131.233 63.1868 131.233 100.479 135.227 135.92Z" fill="#E4E4E4"/>
<path d="M40.2755 55.6624C40.0214 55.663 39.778 55.7644 39.5987 55.9443C39.4193 56.1241 39.3185 56.3678 39.3185 56.6218C39.3185 56.8758 39.4193 57.1195 39.5987 57.2993C39.778 57.4792 40.0214 57.5806 40.2755 57.5812H120.521C120.775 57.5806 121.018 57.4792 121.197 57.2993C121.377 57.1195 121.477 56.8758 121.477 56.6218C121.477 56.3678 121.377 56.1241 121.197 55.9443C121.018 55.7644 120.775 55.663 120.521 55.6624H40.2755Z" fill="#E6E6E6"/>
<path d="M40.2752 61.4197C40.021 61.4202 39.7774 61.5214 39.5979 61.7013C39.4183 61.8812 39.3175 62.125 39.3175 62.3791C39.3175 62.6333 39.4183 62.877 39.5979 63.0569C39.7774 63.2368 40.021 63.3381 40.2752 63.3386H94.7506C95.0047 63.3381 95.2483 63.2368 95.4279 63.0569C95.6074 62.877 95.7082 62.6333 95.7082 62.3791C95.7082 62.125 95.6074 61.8812 95.4279 61.7013C95.2483 61.5214 95.0047 61.4202 94.7506 61.4197H40.2752Z" fill="#E6E6E6"/>
<path d="M40.2752 67.0466C40.021 67.0471 39.7774 67.1484 39.5979 67.3283C39.4183 67.5082 39.3175 67.7519 39.3175 68.0061C39.3175 68.2602 39.4183 68.504 39.5979 68.6839C39.7774 68.8638 40.021 68.965 40.2752 68.9655H120.52C120.774 68.965 121.018 68.8638 121.197 68.6839C121.377 68.504 121.478 68.2602 121.478 68.0061C121.478 67.7519 121.377 67.5082 121.197 67.3283C121.018 67.1484 120.774 67.0471 120.52 67.0466H40.2752Z" fill="#E6E6E6"/>
<path d="M40.2755 72.8037C40.0214 72.8044 39.778 72.9058 39.5987 73.0856C39.4193 73.2655 39.3185 73.5091 39.3185 73.7632C39.3185 74.0172 39.4193 74.2608 39.5987 74.4407C39.778 74.6206 40.0214 74.7219 40.2755 74.7226H94.7509C95.0049 74.7219 95.2483 74.6206 95.4277 74.4407C95.6071 74.2608 95.7078 74.0172 95.7078 73.7632C95.7078 73.5091 95.6071 73.2655 95.4277 73.0856C95.2483 72.9058 95.0049 72.8044 94.7509 72.8037H40.2755Z" fill="#E6E6E6"/>
<path d="M40.2755 88.1309C40.0214 88.1315 39.778 88.2329 39.5987 88.4128C39.4193 88.5926 39.3185 88.8363 39.3185 89.0903C39.3185 89.3443 39.4193 89.588 39.5987 89.7678C39.778 89.9477 40.0214 90.0491 40.2755 90.0498H120.521C120.775 90.0491 121.018 89.9477 121.197 89.7678C121.377 89.588 121.477 89.3443 121.477 89.0903C121.477 88.8363 121.377 88.5926 121.197 88.4128C121.018 88.2329 120.775 88.1315 120.521 88.1309H40.2755Z" fill="#E6E6E6"/>
<path d="M40.2752 93.8882C40.021 93.8887 39.7774 93.99 39.5979 94.1698C39.4183 94.3497 39.3175 94.5935 39.3175 94.8476C39.3175 95.1018 39.4183 95.3455 39.5979 95.5254C39.7774 95.7053 40.021 95.8066 40.2752 95.8071H94.7506C95.0047 95.8066 95.2483 95.7053 95.4279 95.5254C95.6074 95.3455 95.7082 95.1018 95.7082 94.8476C95.7082 94.5935 95.6074 94.3497 95.4279 94.1698C95.2483 93.99 95.0047 93.8887 94.7506 93.8882H40.2752Z" fill="#E6E6E6"/>
<path d="M40.2752 99.5151C40.021 99.5156 39.7774 99.6169 39.5979 99.7968C39.4183 99.9767 39.3175 100.22 39.3175 100.475C39.3175 100.729 39.4183 100.973 39.5979 101.152C39.7774 101.332 40.021 101.434 40.2752 101.434H120.52C120.774 101.434 121.018 101.332 121.197 101.152C121.377 100.973 121.478 100.729 121.478 100.475C121.478 100.22 121.377 99.9767 121.197 99.7968C121.018 99.6169 120.774 99.5156 120.52 99.5151H40.2752Z" fill="#E6E6E6"/>
<path d="M40.2755 105.272C40.0214 105.273 39.778 105.375 39.5987 105.554C39.4193 105.734 39.3185 105.978 39.3185 106.232C39.3185 106.486 39.4193 106.73 39.5987 106.909C39.778 107.089 40.0214 107.191 40.2755 107.191H94.7509C95.0049 107.191 95.2483 107.089 95.4277 106.909C95.6071 106.73 95.7078 106.486 95.7078 106.232C95.7078 105.978 95.6071 105.734 95.4277 105.554C95.2483 105.375 95.0049 105.273 94.7509 105.272H40.2755Z" fill="#E6E6E6"/>
<path d="M56.153 43.749H40.8264C40.6279 43.7488 40.4376 43.6698 40.2972 43.5295C40.1568 43.3891 40.0779 43.1988 40.0776 43.0003V40.5446C40.0779 40.3461 40.1568 40.1558 40.2972 40.0154C40.4376 39.8751 40.6279 39.7961 40.8264 39.7959H56.153C56.3515 39.7961 56.5418 39.8751 56.6821 40.0154C56.8225 40.1558 56.9015 40.3461 56.9017 40.5446V43.0003C56.9015 43.1988 56.8225 43.3891 56.6821 43.5295C56.5418 43.6698 56.3515 43.7488 56.153 43.749Z" fill="#D24325"/>
<path d="M109.398 122.737L104.703 124.289C103.921 124.547 103.138 124.806 102.356 125.065C101.631 125.303 100.847 125.587 100.071 125.484C99.5351 125.413 98.9239 125.105 98.7569 124.553C98.5988 124.031 98.9339 123.485 99.3397 123.177C100.46 122.324 101.877 123.192 102.67 124.074C103.641 125.154 104.191 126.548 105.101 127.678C105.912 128.691 106.94 129.509 108.109 130.073C110.432 131.17 113.266 131.053 115.339 129.455C117.813 127.546 118.066 124.237 118.079 121.351C118.074 121.221 118.019 121.097 117.926 121.007C117.832 120.916 117.707 120.866 117.577 120.866C117.446 120.866 117.321 120.916 117.228 121.007C117.134 121.097 117.079 121.221 117.075 121.351C117.063 123.967 116.914 127.174 114.529 128.81C112.244 130.378 109.241 129.963 107.137 128.292C105.965 127.361 105.244 126.147 104.474 124.89C103.723 123.663 102.79 122.473 101.376 121.996C100.77 121.775 100.106 121.771 99.4971 121.984C98.8881 122.197 98.3711 122.613 98.0337 123.163C97.8796 123.422 97.7825 123.712 97.7489 124.011C97.7153 124.311 97.746 124.615 97.8389 124.902C97.9318 125.189 98.0849 125.453 98.2878 125.677C98.4908 125.9 98.739 126.078 99.0159 126.197C100.655 126.979 102.531 126.063 104.109 125.542L109.665 123.706C110.275 123.504 110.014 122.534 109.398 122.737L109.398 122.737Z" fill="#D24325"/>
<path d="M33.1276 0C32.601 9.36138 29.1599 18.3237 23.2861 25.632C17.4123 32.9403 9.39999 38.2287 0.371029 40.7566C0.360987 40.9909 0.350943 41.2253 0.347595 41.4596C9.56359 38.9243 17.7505 33.5583 23.7523 26.1192C29.7542 18.6801 33.2678 9.5437 33.7971 0H33.1276Z" fill="white"/>
<path d="M22.8748 0C21.3193 5.91022 18.5771 11.442 14.8154 16.2586C11.0536 21.0752 6.35089 25.0758 0.993573 28.0168C0.973489 28.2813 0.960105 28.5424 0.946716 28.8068C6.49888 25.8233 11.3744 21.7242 15.2671 16.767C19.1599 11.8097 21.9859 6.10129 23.5677 0H22.8748Z" fill="white"/>
</svg>
