<svg width="24" height="25" viewBox="0 0 24 25" fill="none" xmlns="http://www.w3.org/2000/svg">
<g clip-path="url(#clip0_91_2502)">
<path d="M10.7107 9.82426L13.5607 6.97426C13.6099 6.9268 13.6491 6.87003 13.6761 6.80725C13.7031 6.74448 13.7173 6.67696 13.7179 6.60863C13.7185 6.54031 13.7055 6.47254 13.6796 6.4093C13.6537 6.34606 13.6155 6.28861 13.5672 6.24029C13.5189 6.19198 13.4614 6.15377 13.3982 6.1279C13.335 6.10203 13.2672 6.08902 13.1989 6.08962C13.1305 6.09022 13.063 6.10443 13.0002 6.13141C12.9375 6.15839 12.8807 6.1976 12.8332 6.24676L9.98324 9.09676C9.88677 9.19318 9.83255 9.32398 9.83252 9.46038C9.83248 9.59677 9.88663 9.7276 9.98306 9.82407C10.0795 9.92054 10.2103 9.97476 10.3467 9.97479C10.4831 9.97483 10.6139 9.92068 10.7104 9.82426H10.7107Z" fill="#D24325"/>
<path d="M15.3642 9.40123C15.4883 9.40138 15.6097 9.36469 15.713 9.29581C15.8163 9.22693 15.8968 9.12896 15.9444 9.01429C15.992 8.89962 16.0045 8.77342 15.9803 8.65165C15.9561 8.52988 15.8963 8.41802 15.8085 8.33024C15.7208 8.24245 15.6089 8.18269 15.4871 8.1585C15.3654 8.13432 15.2392 8.14681 15.1245 8.19438C15.0098 8.24196 14.9118 8.32249 14.843 8.42578C14.7741 8.52906 14.7374 8.65046 14.7375 8.77461C14.7377 8.94074 14.8038 9.10001 14.9213 9.21748C15.0388 9.33495 15.198 9.40103 15.3642 9.40123Z" fill="#D24325"/>
<path d="M23.4855 10.8585H23.2774C23.2277 10.8583 23.1792 10.8435 23.138 10.8159C23.0968 10.7882 23.0646 10.749 23.0456 10.7032C23.0266 10.6573 23.0216 10.6069 23.0312 10.5582C23.0408 10.5095 23.0646 10.4647 23.0996 10.4295L23.8496 9.67948C23.8974 9.63177 23.9353 9.57509 23.9612 9.51271C23.9871 9.45033 24.0004 9.38345 24.0004 9.31592C24.0004 9.24838 23.9871 9.18151 23.9612 9.11913C23.9353 9.05675 23.8974 9.00007 23.8496 8.95236L22.7396 7.84311C22.6558 7.75909 22.5454 7.70666 22.4273 7.6947C22.3092 7.68274 22.1906 7.71199 22.0916 7.77748C21.8635 7.92819 21.5959 8.00827 21.3225 8.00773C20.9812 8.00417 20.652 7.8804 20.3929 7.65819C20.1338 7.43597 19.9613 7.12953 19.9058 6.79273C19.88 6.62568 19.8885 6.45516 19.9305 6.29145C19.9725 6.12774 20.0473 5.97425 20.1502 5.84023C20.2164 5.74106 20.2462 5.62207 20.2347 5.50343C20.2231 5.38478 20.1709 5.27378 20.0869 5.18923L18.9495 4.05223C18.8657 3.96818 18.7554 3.91575 18.6374 3.90385C18.5193 3.89195 18.4007 3.92133 18.3019 3.98698C18.0734 4.13808 17.8055 4.21843 17.5316 4.21798C17.1909 4.21487 16.8622 4.09142 16.6036 3.86944C16.345 3.64745 16.1733 3.34122 16.1186 3.00486C16.0937 2.83691 16.1024 2.66567 16.1442 2.50112C16.1861 2.33656 16.2602 2.18198 16.3624 2.04636C16.4273 1.94741 16.4562 1.82912 16.4441 1.71139C16.4321 1.59366 16.3799 1.48365 16.2964 1.39986L15.1875 0.288732C15.1398 0.240929 15.083 0.203006 15.0206 0.177131C14.9582 0.151257 14.8913 0.137939 14.8237 0.137939C14.7562 0.137939 14.6893 0.151257 14.6269 0.177131C14.5645 0.203006 14.5077 0.240929 14.46 0.288732L3.963 10.785C3.93979 10.8086 3.91213 10.8274 3.88162 10.8403C3.85112 10.8531 3.81836 10.8598 3.78525 10.86H0.5145C0.378306 10.86 0.247667 10.914 0.151223 11.0101C0.0547784 11.1063 0.000397068 11.2368 0 11.373V12.9427C0.000668398 13.062 0.0425417 13.1775 0.118532 13.2694C0.194522 13.3614 0.299961 13.4243 0.417 13.4475C0.657416 13.5002 0.880077 13.6143 1.06329 13.7787C1.24651 13.943 1.38403 14.152 1.46246 14.3853C1.5409 14.6186 1.55757 14.8682 1.51085 15.1099C1.46413 15.3515 1.35561 15.577 1.19587 15.7642C0.993563 15.9969 0.713794 16.1484 0.408375 16.1906C0.293018 16.2153 0.189586 16.2787 0.115288 16.3703C0.0409894 16.462 0.000303829 16.5763 0 16.6942L0 18.3026C0.000668398 18.4219 0.0425417 18.5373 0.118532 18.6293C0.194522 18.7213 0.299961 18.7842 0.417 18.8074C0.657452 18.8601 0.880141 18.9742 1.06337 19.1386C1.24659 19.303 1.38411 19.5121 1.46251 19.7454C1.54091 19.9788 1.55752 20.2285 1.51073 20.4701C1.46393 20.7118 1.35533 20.9373 1.1955 21.1245C0.993436 21.3571 0.713953 21.5087 0.40875 21.5512C0.293449 21.5758 0.190027 21.6391 0.115669 21.7306C0.0413103 21.822 0.000493274 21.9362 0 22.0541L0 23.6242C0 23.7607 0.0542061 23.8916 0.150694 23.988C0.247181 24.0845 0.378046 24.1387 0.5145 24.1387H23.4855C23.622 24.1387 23.7528 24.0845 23.8493 23.988C23.9458 23.8916 24 23.7607 24 23.6242V22.0541C23.9993 21.9345 23.9573 21.8187 23.881 21.7265C23.8047 21.6343 23.6989 21.5713 23.5815 21.5482C23.3414 21.4952 23.1191 21.3809 22.9362 21.2165C22.7533 21.0521 22.6161 20.8432 22.5379 20.61C22.4597 20.3769 22.4431 20.1275 22.4898 19.886C22.5365 19.6446 22.645 19.4194 22.8045 19.2322C23.0068 18.9994 23.2865 18.8478 23.592 18.8055C23.7072 18.7808 23.8104 18.7174 23.8846 18.6259C23.9588 18.5345 23.9995 18.4204 24 18.3026V16.6942C23.9992 16.5746 23.9571 16.459 23.8809 16.3669C23.8046 16.2747 23.6988 16.2118 23.5815 16.1887C23.3414 16.1357 23.1191 16.0214 22.9362 15.857C22.7533 15.6926 22.6161 15.4837 22.5379 15.2505C22.4597 15.0174 22.4431 14.768 22.4898 14.5265C22.5365 14.2851 22.645 14.0599 22.8045 13.8727C23.0068 13.6399 23.2865 13.4882 23.592 13.4456C23.7073 13.4211 23.8106 13.3578 23.8849 13.2663C23.9591 13.1748 23.9998 13.0606 24 12.9427V11.373C23.9996 11.2366 23.9453 11.106 23.8489 11.0096C23.7525 10.9132 23.6218 10.8589 23.4855 10.8585ZM5.775 10.4295L14.6453 1.55811C14.6686 1.53475 14.6963 1.51622 14.7268 1.50358C14.7573 1.49094 14.79 1.48443 14.823 1.48443C14.856 1.48443 14.8887 1.49094 14.9192 1.50358C14.9497 1.51622 14.9774 1.53475 15.0007 1.55811C15.0892 1.67061 15.3191 1.78536 15.2423 2.00248C15.1118 2.36923 15.0715 2.76197 15.1246 3.14758C15.1777 3.5332 15.3227 3.9004 15.5474 4.21823C15.7721 4.53607 16.07 4.79523 16.4158 4.97388C16.7617 5.15252 17.1454 5.24542 17.5346 5.24473C18.2674 5.24473 18.4058 4.96311 18.6079 5.16486C18.8494 5.44798 19.1156 5.55748 19.0324 5.79223C18.9021 6.15897 18.8617 6.55164 18.9148 6.93722C18.9678 7.32279 19.1127 7.68998 19.3372 8.00791C19.5617 8.32583 19.8593 8.58519 20.2049 8.76416C20.5505 8.94313 20.934 9.03648 21.3232 9.03636C22.0485 9.03636 22.1951 8.75398 22.3969 8.95498C22.4659 9.03373 22.8094 9.26398 22.5806 9.49311L21.8224 10.2525L21.45 10.6249C21.3759 10.699 21.2879 10.7577 21.1911 10.7978C21.0942 10.8379 20.9904 10.8585 20.8856 10.8585H5.95088C5.9014 10.858 5.85316 10.8429 5.81221 10.8151C5.77126 10.7873 5.73941 10.7481 5.72064 10.7023C5.70187 10.6565 5.69702 10.6062 5.70669 10.5577C5.71635 10.5092 5.74012 10.4646 5.775 10.4295ZM22.971 12.3975C22.971 12.4418 22.9593 12.4854 22.9371 12.5237C22.9148 12.562 22.8828 12.5938 22.8442 12.6157C22.5565 12.7506 22.2951 12.9356 22.0721 13.1621C21.8167 13.4441 21.6306 13.7818 21.5285 14.1484C21.4264 14.5149 21.4112 14.9002 21.484 15.2736C21.5568 15.6471 21.7156 15.9984 21.9479 16.2997C22.1802 16.6011 22.4795 16.8441 22.8221 17.0096C22.8664 17.0298 22.904 17.0622 22.9306 17.103C22.9571 17.1437 22.9715 17.1912 22.9721 17.2399V17.7056C22.9786 17.7623 22.9677 17.8197 22.9409 17.8701C22.9142 17.9205 22.8727 17.9616 22.8221 17.988C22.4795 18.1534 22.1802 18.3964 21.9479 18.6977C21.7156 18.999 21.5568 19.3504 21.484 19.7238C21.4112 20.0972 21.4264 20.4825 21.5285 20.849C21.6306 21.2155 21.8167 21.5531 22.0721 21.8351C22.2952 22.0616 22.5567 22.2466 22.8446 22.3815C22.8832 22.4035 22.9152 22.4353 22.9374 22.4737C22.9597 22.5121 22.9714 22.5557 22.9714 22.6001C22.9556 22.6714 23.0573 23.1101 22.7201 23.1101H1.27988C0.933375 23.1101 1.04775 22.6852 1.029 22.6001C1.02901 22.5557 1.04073 22.5121 1.06299 22.4738C1.08525 22.4354 1.11724 22.4035 1.15575 22.3815C1.44365 22.2465 1.70523 22.0614 1.92825 21.8347C2.18348 21.5527 2.36948 21.2151 2.47148 20.8486C2.57349 20.4822 2.5887 20.097 2.51591 19.7237C2.44312 19.3503 2.28433 18.9991 2.05214 18.6978C1.81994 18.3965 1.52074 18.1535 1.17825 17.988C1.13401 17.9677 1.09643 17.9354 1.06987 17.8946C1.04332 17.8538 1.02888 17.8064 1.02825 17.7577V17.2916C1.0217 17.2349 1.03254 17.1776 1.05933 17.1272C1.08612 17.0769 1.1276 17.0359 1.17825 17.0096C1.52074 16.8441 1.81995 16.601 2.05214 16.2997C2.28433 15.9984 2.44312 15.6471 2.51591 15.2737C2.5887 14.9003 2.57349 14.5151 2.47148 14.1487C2.36948 13.7822 2.18348 13.4445 1.92825 13.1625C1.70523 12.9358 1.44365 12.7507 1.15575 12.6157C1.11722 12.5938 1.0852 12.562 1.06293 12.5237C1.04067 12.4854 1.02896 12.4418 1.029 12.3975C1.04475 12.3255 0.943125 11.8875 1.27988 11.8875H22.7197C23.0666 11.8875 22.9522 12.3124 22.971 12.3975Z" fill="#D24325"/>
<path d="M5.82715 14.9512H18.1725C18.2412 14.953 18.3096 14.9411 18.3736 14.9161C18.4377 14.8911 18.496 14.8535 18.5453 14.8056C18.5945 14.7576 18.6337 14.7003 18.6604 14.637C18.6871 14.5736 18.7009 14.5056 18.7009 14.4369C18.7009 14.3681 18.6871 14.3001 18.6604 14.2368C18.6337 14.1734 18.5945 14.1161 18.5453 14.0682C18.496 14.0202 18.4377 13.9827 18.3736 13.9576C18.3096 13.9326 18.2412 13.9207 18.1725 13.9226H5.82715C5.69315 13.9262 5.56585 13.9819 5.47235 14.078C5.37886 14.1741 5.32654 14.3028 5.32654 14.4369C5.32654 14.5709 5.37886 14.6997 5.47235 14.7957C5.56585 14.8918 5.69315 14.9476 5.82715 14.9512Z" fill="#D24325"/>
<path d="M18.1725 20.0471H5.82712C5.69067 20.0471 5.5598 20.1013 5.46332 20.1978C5.36683 20.2943 5.31262 20.4252 5.31262 20.5616C5.31262 20.6981 5.36683 20.8289 5.46332 20.9254C5.5598 21.0219 5.69067 21.0761 5.82712 21.0761H18.1725C18.309 21.0761 18.4398 21.0219 18.5363 20.9254C18.6328 20.8289 18.687 20.6981 18.687 20.5616C18.687 20.4252 18.6328 20.2943 18.5363 20.1978C18.4398 20.1013 18.309 20.0471 18.1725 20.0471Z" fill="#D24325"/>
<path d="M5.82744 18.126C5.95153 18.126 6.07282 18.0892 6.17599 18.0202C6.27916 17.9513 6.35958 17.8533 6.40706 17.7387C6.45455 17.624 6.46697 17.4979 6.44276 17.3762C6.41855 17.2545 6.3588 17.1427 6.27106 17.055C6.18332 16.9672 6.07154 16.9075 5.94984 16.8833C5.82814 16.8591 5.702 16.8715 5.58736 16.919C5.47272 16.9665 5.37474 17.0469 5.3058 17.15C5.23687 17.2532 5.20007 17.3745 5.20007 17.4986C5.20007 17.665 5.26617 17.8246 5.38383 17.9422C5.50148 18.0599 5.66106 18.126 5.82744 18.126Z" fill="#D24325"/>
<path d="M7.25769 17.4986C7.25762 17.6227 7.29436 17.7441 7.36327 17.8473C7.43217 17.9505 7.53015 18.031 7.64481 18.0785C7.75946 18.126 7.88563 18.1385 8.00737 18.1143C8.1291 18.0901 8.24092 18.0304 8.32869 17.9426C8.41645 17.8548 8.47621 17.743 8.5004 17.6213C8.5246 17.4995 8.51214 17.3734 8.46461 17.2587C8.41708 17.144 8.33661 17.0461 8.23338 16.9772C8.13015 16.9083 8.0088 16.8715 7.88469 16.8716C7.71843 16.8717 7.55901 16.9378 7.44144 17.0553C7.32388 17.1729 7.25779 17.3323 7.25769 17.4986Z" fill="#D24325"/>
<path d="M9.31543 17.4986C9.31536 17.6227 9.3521 17.7441 9.42101 17.8473C9.48991 17.9505 9.58789 18.031 9.70255 18.0785C9.8172 18.126 9.94338 18.1385 10.0651 18.1143C10.1868 18.0901 10.2987 18.0304 10.3864 17.9426C10.4742 17.8548 10.534 17.743 10.5581 17.6213C10.5823 17.4995 10.5699 17.3734 10.5224 17.2587C10.4748 17.144 10.3944 17.0461 10.2911 16.9772C10.1879 16.9083 10.0665 16.8715 9.94243 16.8716C9.77614 16.8716 9.61666 16.9376 9.49907 17.0552C9.38149 17.1728 9.31543 17.3323 9.31543 17.4986Z" fill="#D24325"/>
<path d="M11.3727 17.4986C11.3726 17.6227 11.4093 17.744 11.4782 17.8472C11.5471 17.9505 11.6451 18.0309 11.7597 18.0785C11.8743 18.126 12.0005 18.1385 12.1222 18.1143C12.2439 18.0902 12.3558 18.0304 12.4436 17.9427C12.5313 17.855 12.5911 17.7432 12.6154 17.6215C12.6396 17.4998 12.6272 17.3736 12.5797 17.259C12.5322 17.1443 12.4518 17.0463 12.3487 16.9773C12.2455 16.9084 12.1242 16.8716 12.0001 16.8716C11.8337 16.8716 11.6742 16.9376 11.5566 17.0552C11.4389 17.1728 11.3728 17.3323 11.3727 17.4986Z" fill="#D24325"/>
<path d="M13.4303 17.4986C13.4302 17.6227 13.467 17.744 13.5358 17.8472C13.6047 17.9505 13.7027 18.0309 13.8173 18.0785C13.932 18.126 14.0581 18.1385 14.1798 18.1143C14.3016 18.0902 14.4134 18.0304 14.5012 17.9427C14.5889 17.855 14.6487 17.7432 14.673 17.6215C14.6972 17.4998 14.6848 17.3736 14.6373 17.259C14.5899 17.1443 14.5094 17.0463 14.4063 16.9773C14.3031 16.9084 14.1818 16.8716 14.0577 16.8716C13.8914 16.8716 13.7318 16.9376 13.6142 17.0552C13.4965 17.1728 13.4304 17.3323 13.4303 17.4986Z" fill="#D24325"/>
<path d="M15.4875 17.4986C15.4875 17.6227 15.5242 17.744 15.5931 17.8472C15.662 17.9505 15.7599 18.0309 15.8746 18.0785C15.9892 18.126 16.1154 18.1385 16.2371 18.1143C16.3588 18.0902 16.4706 18.0304 16.5584 17.9427C16.6462 17.855 16.706 17.7432 16.7302 17.6215C16.7545 17.4998 16.7421 17.3736 16.6946 17.259C16.6471 17.1443 16.5667 17.0463 16.4635 16.9773C16.3603 16.9084 16.239 16.8716 16.1149 16.8716C15.9486 16.8716 15.7891 16.9376 15.6714 17.0552C15.5538 17.1728 15.4876 17.3323 15.4875 17.4986Z" fill="#D24325"/>
<path d="M18.1729 16.8716C18.0488 16.8715 17.9275 16.9083 17.8242 16.9772C17.721 17.0461 17.6405 17.144 17.593 17.2587C17.5455 17.3734 17.533 17.4995 17.5572 17.6213C17.5814 17.743 17.6412 17.8548 17.7289 17.9426C17.8167 18.0304 17.9285 18.0901 18.0502 18.1143C18.172 18.1385 18.2981 18.126 18.4128 18.0785C18.5274 18.031 18.6254 17.9505 18.6943 17.8473C18.7632 17.7441 18.8 17.6227 18.7999 17.4986C18.7999 17.3323 18.7339 17.1728 18.6163 17.0552C18.4987 16.9376 18.3392 16.8716 18.1729 16.8716Z" fill="#D24325"/>
</g>
<defs>
<clipPath id="clip0_91_2502">
<rect width="24" height="24" fill="white" transform="translate(0 0.138672)"/>
</clipPath>
</defs>
</svg>
