<svg width="20" height="18" viewBox="0 0 20 18" fill="none" xmlns="http://www.w3.org/2000/svg">
<path d="M8.13614 0H8.13875V0.00105176C10.3847 0.00165277 12.4184 0.842611 13.8901 2.20149C15.3594 3.55841 16.2695 5.43415 16.271 7.50582H16.2721V7.51077V7.51678H16.271C16.2702 8.35173 16.1217 9.15528 15.8488 9.90458C15.803 10.0303 15.7552 10.1511 15.706 10.2665V10.2676C15.4707 10.8175 15.1665 11.3374 14.8032 11.8162L19.5366 15.7437L19.5396 15.7461L19.5651 15.768L19.5669 15.7696C19.8342 16.0045 19.9797 16.319 19.9981 16.6381C20.016 16.9536 19.9097 17.2764 19.676 17.5353L19.6742 17.5377L19.6457 17.5682L19.64 17.5734L19.6162 17.5975L19.6136 17.6006C19.3589 17.8473 19.0189 17.9814 18.6729 17.9982C18.3315 18.0149 17.9816 17.917 17.701 17.701L17.6986 17.6993L17.6654 17.673L17.6606 17.6694L12.8193 13.6526C12.6761 13.7458 12.5299 13.8343 12.3819 13.9178C12.1813 14.0312 11.9734 14.1381 11.7613 14.2356C10.671 14.7377 9.43889 15.0202 8.1363 15.0202V15.0212H8.1337V15.0202C5.88775 15.0196 3.85371 14.1786 2.38202 12.8198C0.91228 11.4628 0.00260419 9.5868 0.00113933 7.51573H0V7.51077V7.50837H0.00113933C0.00179038 5.43505 0.912769 3.55735 2.38479 2.19878C3.85469 0.842611 5.88661 0.00240402 8.13077 0.00105176V0H8.13614ZM8.13875 1.68432V1.68537H8.13614H8.13077V1.68432C6.3915 1.68537 4.81499 2.33791 3.6737 3.39103C2.53257 4.44414 1.82505 5.90098 1.82456 7.50852H1.8257V7.51092V7.51588H1.82456C1.8257 9.12147 2.53209 10.5761 3.67337 11.6299C4.81417 12.6835 6.39231 13.3366 8.13354 13.3369V13.3359H8.13614H8.14151V13.3369C9.88079 13.3359 11.4566 12.6836 12.5983 11.6302C13.7394 10.5771 14.4469 9.12072 14.4472 7.51333H14.4463V7.51092V7.50597H14.4472C14.4463 5.90038 13.7392 4.44504 12.5986 3.39148C11.4578 2.33791 9.88014 1.68477 8.13875 1.68432Z" fill="#225862"/>
</svg>
