<svg width="24" height="24" viewBox="0 0 24 24" fill="none" xmlns="http://www.w3.org/2000/svg">
<g clip-path="url(#clip0_93_2851)">
<path d="M19.4082 7.01602L15.4459 6.44026L13.6739 2.84987C12.9898 1.4634 11.0106 1.46288 10.3262 2.84982L8.55416 6.44026L4.59187 7.01602C3.06187 7.23831 2.44991 9.12029 3.55738 10.1999L6.42454 12.9947L5.74771 16.9409C5.48633 18.4646 7.08693 19.6283 8.4561 18.9087L12 17.0454L15.5441 18.9087C16.9148 19.6292 18.5132 18.4612 18.2523 16.9409L17.5755 12.9947L20.4427 10.1999C21.5497 9.12067 20.9388 7.23845 19.4082 7.01602Z" fill="white"/>
<path d="M6.31547 2.2103L5.3587 0.893492C5.09897 0.536117 4.59867 0.456852 4.24129 0.716586C3.88387 0.976274 3.80465 1.47657 4.06434 1.83399L5.02111 3.15081C5.28098 3.50837 5.78133 3.58735 6.13852 3.32771C6.49594 3.06807 6.57516 2.56773 6.31547 2.2103Z" fill="white"/>
<path d="M3.14047 14.0113C3.00392 13.5911 2.55271 13.361 2.13242 13.4977L0.552969 14.0109C0.132781 14.1474 -0.0971408 14.5987 0.0393593 15.019C0.176141 15.4399 0.628297 15.6689 1.04741 15.5326L2.62691 15.0193C3.0471 14.8829 3.27702 14.4315 3.14047 14.0113Z" fill="white"/>
<path d="M19.7586 0.716599C19.4013 0.456865 18.901 0.536084 18.6412 0.893506L17.6845 2.21032C17.4247 2.56774 17.504 3.06808 17.8614 3.32773C18.219 3.58751 18.7192 3.5081 18.9788 3.15082L19.9356 1.83401C20.1953 1.47658 20.1161 0.976287 19.7586 0.716599Z" fill="white"/>
<path d="M23.447 14.011L21.8675 13.4977C21.4473 13.3609 20.996 13.5911 20.8594 14.0113C20.7229 14.4315 20.9528 14.8828 21.3731 15.0194L22.9526 15.5326C23.3719 15.669 23.8239 15.4398 23.9606 15.019C24.0971 14.5988 23.8672 14.1475 23.447 14.011Z" fill="white"/>
<path d="M11.9999 20.2129C11.5581 20.2129 11.2 20.5711 11.2 21.0129V22.6365C11.2 23.0783 11.5581 23.4365 11.9999 23.4365C12.4417 23.4365 12.7999 23.0783 12.7999 22.6365V21.0129C12.7999 20.5711 12.4418 20.2129 11.9999 20.2129Z" fill="white"/>
</g>
<defs>
<clipPath id="clip0_93_2851">
<rect width="24" height="24" fill="white"/>
</clipPath>
</defs>
</svg>
