<svg width="33" height="34" viewBox="0 0 33 34" fill="none" xmlns="http://www.w3.org/2000/svg">
<g filter="url(#filter0_d_97_1193)">
<path d="M5.79345 8.40086C5.78563 8.26183 5.80468 8.11879 5.85497 7.97976C6.72899 5.58317 8.28173 3.5861 10.2407 2.19081C12.1977 0.796521 14.5571 0 17.0478 0C20.3481 0 23.3364 1.37572 25.499 3.59865C27.6616 5.82158 29 8.89322 29 12.2856C29 15.2905 27.9448 18.0479 26.1938 20.187C24.4165 22.3588 21.9224 23.8891 19.0884 24.391C18.8223 24.4377 18.5625 24.3724 18.355 24.2279C18.6479 23.6532 18.8223 22.9907 18.8144 22.3377C21.146 21.9081 23.1953 20.6443 24.6572 18.858C26.1074 17.0853 26.9819 14.7926 26.9819 12.2856C26.9819 9.4659 25.8696 6.91271 24.0723 5.06521C22.2749 3.2177 19.791 2.07437 17.0478 2.07437C14.9712 2.07437 13.0078 2.73537 11.3838 3.89226C9.86376 4.97487 8.63866 6.49162 7.89208 8.3055C7.19726 8.19106 6.47411 8.20762 5.79345 8.40086ZM14.2388 11.5794V15.6478H14.8569C15.0771 15.6478 15.228 15.6202 15.3091 15.5655C15.3906 15.5103 15.4311 15.3848 15.4311 15.1881V11.5794H17.1714V14.6245C17.1714 15.1158 17.1396 15.5118 17.0757 15.8125C17.0117 16.1131 16.8931 16.3676 16.7187 16.5759C16.5449 16.7841 16.3071 16.9287 16.0054 17.0095C15.7036 17.0903 15.312 17.131 14.8306 17.131C14.3491 17.131 13.959 17.0903 13.6601 17.0095C13.3618 16.9287 13.125 16.7841 12.9512 16.5759C12.7773 16.3676 12.6582 16.1131 12.5942 15.8125C12.5308 15.5118 12.4985 15.1158 12.4985 14.6245V11.5794H14.2388ZM18.02 16.9056L18.2637 15.4742C18.7969 15.6072 19.2773 15.6739 19.7036 15.6739C20.1299 15.6739 20.4736 15.6564 20.7349 15.6217V15.1881L19.9517 15.1188C19.2436 15.0551 18.7578 14.8859 18.4941 14.6114C18.23 14.3364 18.0981 13.9303 18.0981 13.3923C18.0981 12.6525 18.2593 12.1435 18.581 11.866C18.9028 11.5884 19.4497 11.4494 20.2212 11.4494C20.9927 11.4494 21.689 11.5217 22.3096 11.6662L22.0923 13.054C21.5527 12.9677 21.1206 12.924 20.7954 12.924C20.4707 12.924 20.1953 12.9386 19.9687 12.9677V13.3923L20.5957 13.453C21.3555 13.5283 21.8804 13.709 22.1704 13.9951C22.4604 14.2817 22.6055 14.6792 22.6055 15.1881C22.6055 15.5525 22.5561 15.8601 22.4575 16.1116C22.3589 16.3636 22.2417 16.5543 22.105 16.6843C21.9687 16.8143 21.7759 16.9141 21.5264 16.9834C21.2769 17.0532 21.0581 17.0948 20.8696 17.1094C20.6811 17.1239 20.4302 17.131 20.1167 17.131C19.3628 17.131 18.6636 17.0557 18.02 16.9056ZM14.6318 9.01468L14.7051 9.85738C14.5 9.94471 14.2432 9.98838 13.9336 9.98838C13.6245 9.98838 13.3765 9.95475 13.189 9.88749C13.0019 9.82074 12.8545 9.71584 12.7471 9.5718C12.6401 9.42775 12.5649 9.25861 12.5225 9.06487C12.4805 8.87064 12.459 8.63123 12.459 8.34715C12.459 8.06257 12.4805 7.82266 12.5225 7.62692C12.5649 7.43118 12.6401 7.26154 12.7471 7.11749C12.9556 6.83994 13.3379 6.70091 13.8945 6.70091C14.0181 6.70091 14.1641 6.71346 14.3315 6.73855C14.4995 6.76365 14.6235 6.79477 14.7051 6.83141L14.5586 7.59932C14.3472 7.55264 14.1533 7.52905 13.9775 7.52905C13.8018 7.52905 13.6797 7.54561 13.6113 7.57924C13.543 7.61287 13.5088 7.67962 13.5088 7.78V9.09499C13.6357 9.12159 13.7646 9.13514 13.8945 9.13514C14.1714 9.13514 14.417 9.09499 14.6318 9.01468ZM15.9209 9.91309H14.8906L15.6816 6.7762H17.1904L17.981 9.91309H16.9512L16.8389 9.41621H16.0332L15.9209 9.91309ZM16.3125 7.73985L16.1318 8.61818H16.7353L16.5591 7.73985H16.3125ZM20.2661 9.91309H18.3135V6.7762H19.2895V9.11005H20.2661V9.91309ZM22.6343 9.91309H20.6811V6.7762H21.6577V9.11005H22.6343V9.91309ZM7.70849 16.1593C8.06591 17 8.49218 17.8166 9.062 18.587C9.68114 19.4267 10.478 20.2167 11.5434 20.9344C11.7451 21.0659 11.9673 20.8967 12.125 20.7662C12.2173 20.6895 12.3354 20.5645 12.4609 20.4265C12.956 19.8884 13.5693 19.2214 14.2886 19.6696C14.3042 19.6791 14.3164 19.6902 14.332 19.6997L16.7012 21.4759C16.7085 21.481 16.7163 21.491 16.7236 21.496C17.0322 21.7685 17.1309 22.148 17.0908 22.559C16.9814 23.5945 16.1909 24.4572 15.2529 24.7744C14.7588 24.9441 14.2222 25.0058 13.7104 25.0254C12.9072 25.057 12.1743 24.8979 11.4424 24.5737C10.7266 24.255 10.022 23.7832 9.26171 23.1744L9.20556 23.1282C8.85644 22.8466 8.47997 22.5445 8.1162 22.1977C6.78319 20.9088 5.47802 19.118 4.70458 17.2218C4.05565 15.6303 3.78661 13.9594 4.19091 12.4412C4.41405 11.609 4.84911 10.8777 5.51903 10.4381C6.1035 10.0526 6.85302 9.89 7.78075 10.0802C7.88769 10.1003 7.97704 10.1756 8.01708 10.276L9.33886 13.2723C9.54247 13.6146 9.53905 13.9303 9.37646 14.2295C9.24169 14.4744 8.99999 14.6857 8.68065 14.8739C8.58544 14.9407 8.47313 15.0064 8.35595 15.0762C8.0664 15.2463 7.74706 15.436 7.64257 15.6795C7.55858 15.8747 7.6328 15.9811 7.70849 16.1593Z" fill="#D24325"/>
</g>
<defs>
<filter id="filter0_d_97_1193" x="0" y="0" width="33" height="33.0293" filterUnits="userSpaceOnUse" color-interpolation-filters="sRGB">
<feFlood flood-opacity="0" result="BackgroundImageFix"/>
<feColorMatrix in="SourceAlpha" type="matrix" values="0 0 0 0 0 0 0 0 0 0 0 0 0 0 0 0 0 0 127 0" result="hardAlpha"/>
<feOffset dy="4"/>
<feGaussianBlur stdDeviation="2"/>
<feComposite in2="hardAlpha" operator="out"/>
<feColorMatrix type="matrix" values="0 0 0 0 0 0 0 0 0 0 0 0 0 0 0 0 0 0 0.25 0"/>
<feBlend mode="normal" in2="BackgroundImageFix" result="effect1_dropShadow_97_1193"/>
<feBlend mode="normal" in="SourceGraphic" in2="effect1_dropShadow_97_1193" result="shape"/>
</filter>
</defs>
</svg>
