<svg width="24" height="20" viewBox="0 0 24 20" fill="none" xmlns="http://www.w3.org/2000/svg">
<g clip-path="url(#clip0_98_1361)">
<path fill-rule="evenodd" clip-rule="evenodd" d="M23.418 5.47589V16.7433C23.418 16.917 23.3497 17.0835 23.2281 17.2064C23.1065 17.3292 22.9415 17.3982 22.7696 17.3982H14.9571C14.9922 18.3983 15.418 19.2938 16.5196 20H7.48245C8.37893 19.3451 9.03128 18.5541 9.04495 17.3982H1.2305C1.05936 17.3966 0.895721 17.327 0.775069 17.2044C0.654417 17.0818 0.586471 16.9161 0.585964 16.7433V5.47786C0.204222 4.95741 -0.00125041 4.32656 2.65197e-05 3.67886V2.5466C-0.000662057 2.49046 0.0120677 2.43497 0.0371359 2.38485L2.11331 0.167669C2.13758 0.118225 2.17482 0.0764502 2.22096 0.0468881C2.26711 0.0173261 2.32039 0.00110872 2.37503 0L21.4571 0C21.5153 0.000835171 21.572 0.0188288 21.6202 0.0517699C21.6684 0.084711 21.7061 0.131165 21.7285 0.185423L23.9551 2.3671C23.9815 2.41343 23.9962 2.46557 23.9981 2.51899C23.9991 2.53014 23.9991 2.54137 23.9981 2.55252V3.67295C23.9989 4.31996 23.7935 4.95007 23.4121 5.46997L23.418 5.47589ZM1.43167 6.21955V12.0012H8.28714C8.35883 12.1831 8.44302 12.3598 8.53909 12.5298H1.43167V14.317C1.43516 14.4695 1.49684 14.6148 1.60383 14.7225C1.71083 14.8302 1.85486 14.892 2.00589 14.895H21.9961C22.1471 14.892 22.2912 14.8302 22.3982 14.7225C22.5052 14.6148 22.5668 14.4695 22.5703 14.317V12.5298H15.461C15.557 12.3598 15.6412 12.1831 15.7129 12.0012H22.5703V6.2373L22.545 6.24914C22.2113 6.42064 21.8448 6.51689 21.4707 6.53122C21.049 6.53772 20.6305 6.45508 20.2422 6.28859C19.9612 6.14499 19.7074 5.95271 19.4922 5.72049C19.3012 5.5101 19.1413 5.2729 19.0176 5.01627C18.8945 5.2733 18.7346 5.51059 18.543 5.72049C18.3087 5.98616 18.0213 6.19877 17.6998 6.34435C17.3784 6.48993 17.0301 6.5652 16.6778 6.5652C16.3255 6.5652 15.9771 6.48993 15.6557 6.34435C15.3342 6.19877 15.0469 5.98616 14.8125 5.72049C14.6209 5.51059 14.461 5.2733 14.3379 5.01627C14.216 5.27301 14.0574 5.51027 13.8672 5.72049C13.6329 5.98616 13.3455 6.19877 13.0241 6.34435C12.7026 6.48993 12.3543 6.5652 12.002 6.5652C11.6497 6.5652 11.3014 6.48993 10.9799 6.34435C10.6584 6.19877 10.3711 5.98616 10.1367 5.72049C9.94639 5.50958 9.7866 5.27248 9.66214 5.01627C9.53738 5.27422 9.37474 5.51164 9.17972 5.72049C8.94537 5.98616 8.65803 6.19877 8.33657 6.34435C8.0151 6.48993 7.66678 6.5652 7.31448 6.5652C6.96218 6.5652 6.61386 6.48993 6.2924 6.34435C5.97093 6.19877 5.68359 5.98616 5.44925 5.72049C5.25824 5.5101 5.09838 5.2729 4.97464 5.01627C4.85149 5.27278 4.6923 5.50997 4.50198 5.72049C4.18999 6.06403 3.79388 6.31848 3.35354 6.45823C2.87136 6.57375 2.36761 6.55947 1.8926 6.41681C1.73347 6.36499 1.57922 6.29898 1.43167 6.21955ZM1.06253 2.23296H4.74221L5.46487 0.654897H2.55081L1.06253 2.23296ZM14.3086 0.654897L14.6094 2.23296H18.627L17.8047 0.654897H14.3086ZM14.0059 2.23296L13.7071 0.654897H10.2832L9.98831 2.23296H14.0059ZM9.38675 2.23296L9.68167 0.654897H6.08206L5.3594 2.23296H9.38675ZM18.4258 0.654897L19.2481 2.23296H22.916L21.2871 0.654897H18.4258ZM19.3203 2.88589V3.67492C19.3147 4.25836 19.5283 4.82227 19.918 5.25298C20.0983 5.45886 20.3199 5.62371 20.5681 5.73662C20.8162 5.84952 21.0853 5.90791 21.3575 5.90791C21.6296 5.90791 21.8987 5.84952 22.1468 5.73662C22.395 5.62371 22.6166 5.45886 22.7969 5.25298C23.1872 4.82247 23.4014 4.25859 23.3965 3.67492V2.88589H19.3203ZM14.6328 2.88589V3.67492C14.627 4.25877 14.8413 4.823 15.2324 5.25298C15.4128 5.45886 15.6344 5.62371 15.8825 5.73662C16.1307 5.84952 16.3997 5.90791 16.6719 5.90791C16.9441 5.90791 17.2131 5.84952 17.4613 5.73662C17.7094 5.62371 17.931 5.45886 18.1114 5.25298C18.5016 4.82247 18.7159 4.25859 18.711 3.67492V2.88589H14.6328ZM9.94534 2.88589V3.67492C9.9397 4.25836 10.1533 4.82227 10.543 5.25298C10.7233 5.45886 10.9449 5.62371 11.1931 5.73662C11.4412 5.84952 11.7103 5.90791 11.9824 5.90791C12.2546 5.90791 12.5237 5.84952 12.7718 5.73662C13.02 5.62371 13.2416 5.45886 13.4219 5.25298C13.8122 4.82247 14.0264 4.25859 14.0215 3.67492V2.88589H9.94534ZM5.25784 2.88589V3.67492C5.25195 4.25877 5.46634 4.823 5.85745 5.25298C6.03779 5.45886 6.25936 5.62371 6.50751 5.73662C6.75567 5.84952 7.02473 5.90791 7.2969 5.90791C7.56907 5.90791 7.83814 5.84952 8.08629 5.73662C8.33444 5.62371 8.55602 5.45886 8.73636 5.25298C9.12662 4.82247 9.34087 4.25859 9.33597 3.67492V2.88589H5.25784ZM4.65628 2.88589H0.601589V3.67492C0.595704 4.25877 0.810089 4.823 1.2012 5.25298C1.38279 5.45731 1.60462 5.6211 1.85249 5.73387C2.10035 5.84664 2.3688 5.90591 2.64065 5.90788C2.91217 5.90563 3.18024 5.84623 3.42776 5.73347C3.67527 5.62071 3.89678 5.45707 4.07815 5.25298C4.46896 4.82266 4.68389 4.25882 4.67971 3.67492V2.88589H4.65628ZM12 7.4031C12.4062 7.40211 12.8085 7.48256 13.1836 7.63981C13.5573 7.79658 13.8965 8.02654 14.1817 8.3164C14.6146 8.75268 14.9097 9.30883 15.0297 9.91452C15.1496 10.5202 15.089 11.1482 14.8555 11.7191C14.7003 12.096 14.4733 12.4385 14.1875 12.7271C13.7565 13.1664 13.2057 13.4663 12.6054 13.5885C12.0051 13.7108 11.3824 13.6499 10.8164 13.4136C10.0587 13.0963 9.45671 12.4883 9.14251 11.7231C8.82831 10.9579 8.82764 10.098 9.14065 9.33228C9.37539 8.76236 9.77211 8.27549 10.2807 7.93318C10.7893 7.59086 11.3869 7.40846 11.9981 7.40902L12 7.4031ZM9.76565 12.2063H9.77737C10.0742 12.0406 10.8477 11.9854 11.1699 11.7586C11.1984 11.7129 11.2225 11.6647 11.2422 11.6146C11.2793 11.5297 11.3125 11.437 11.334 11.3739C11.2465 11.2636 11.1662 11.1477 11.0938 11.0267L10.8516 10.6322C10.7734 10.5286 10.7253 10.4049 10.7129 10.2752C10.7103 10.2311 10.7183 10.1871 10.7364 10.147C10.7549 10.1069 10.7839 10.0728 10.8203 10.0483C10.8386 10.0361 10.8583 10.0262 10.8789 10.0187C10.8622 9.78506 10.8583 9.55062 10.8672 9.3165C10.8729 9.26241 10.8834 9.20894 10.8985 9.15672C10.9656 8.93528 11.1118 8.7469 11.3086 8.62807C11.4152 8.56012 11.531 8.50828 11.6524 8.47421C11.7305 8.45251 11.6074 8.2592 11.6875 8.24933C12.0782 8.20988 12.6778 8.50972 12.9473 8.8056C13.0943 8.9716 13.1787 9.18463 13.1856 9.40724L13.1719 10.0444C13.2033 10.0527 13.2317 10.0697 13.2541 10.0934C13.2765 10.117 13.292 10.1465 13.2989 10.1785C13.3131 10.2946 13.2898 10.4122 13.2324 10.5139L12.9551 10.9754C12.8615 11.1467 12.7474 11.3057 12.6153 11.4489L12.6524 11.5021C12.7054 11.5855 12.7655 11.6641 12.8321 11.7369C13.1524 11.9657 13.9297 12.0209 14.2266 12.1886H14.2403C14.5487 11.7696 14.7358 11.2722 14.7806 10.7521C14.8253 10.2319 14.7261 9.70944 14.494 9.24294C14.2618 8.77644 13.9058 8.38429 13.4658 8.11027C13.0257 7.83625 12.5189 7.69114 12.002 7.69114C11.485 7.69114 10.9782 7.83625 10.5382 8.11027C10.0981 8.38429 9.74217 8.77644 9.51 9.24294C9.27783 9.70944 9.17861 10.2319 9.22341 10.7521C9.26821 11.2722 9.45527 11.7696 9.7637 12.1886L9.76565 12.2063Z" fill="#D24325"/>
</g>
<defs>
<clipPath id="clip0_98_1361">
<rect width="24" height="20" fill="white"/>
</clipPath>
</defs>
</svg>
