<svg width="24" height="20" viewBox="0 0 24 20" fill="none" xmlns="http://www.w3.org/2000/svg">
<path d="M7.47623 0H16.5238C20.6528 0 24 3.4936 24 7.80327C24 10.9208 22.2485 13.6109 19.7166 14.8611C18.6996 15.3631 18.0476 16.4276 18.0476 17.6016V19.2756C18.0476 19.9118 17.2596 20.1658 16.9161 19.64L15.145 16.9285C14.6048 16.1013 13.7076 15.6065 12.748 15.6065H7.47623C3.34719 15.6065 0 12.1129 0 7.80327C0 3.4936 3.34719 0 7.47623 0Z" fill="#D24325"/>
<path d="M15.825 14.6126H10.5529C6.42384 14.6126 3.07665 11.1187 3.07665 6.80938C3.07665 3.96839 4.53148 1.48212 6.70588 0.117432C2.93886 0.519897 0 3.84156 0 7.87969C0 12.1894 3.34719 15.683 7.47623 15.683H12.7483C13.7076 15.683 14.6048 16.178 15.145 17.0052L16.9161 19.7164C17.2596 20.2422 18.0476 19.9885 18.0476 19.352V17.678C18.0476 17.1572 18.1765 16.6581 18.4083 16.2199L18.2216 15.9349C17.6814 15.1074 16.7842 14.6126 15.825 14.6126Z" fill="#BE3033"/>
<path d="M18.4408 7.9524C18.4408 8.74796 17.8228 9.39296 17.0606 9.39296C16.2984 9.39296 15.6804 8.74796 15.6804 7.9524C15.6804 7.15684 16.2984 6.51184 17.0606 6.51184C17.8228 6.51184 18.4408 7.15684 18.4408 7.9524Z" fill="white"/>
<path d="M13.38 7.9524C13.38 8.74796 12.7623 9.39296 12.0001 9.39296C11.2378 9.39296 10.6199 8.74796 10.6199 7.9524C10.6199 7.15684 11.2378 6.51184 12.0001 6.51184C12.7623 6.51184 13.38 7.15684 13.38 7.9524Z" fill="white"/>
<path d="M8.31945 7.9524C8.31945 8.74796 7.70148 9.39296 6.93927 9.39296C6.17705 9.39296 5.55908 8.74796 5.55908 7.9524C5.55908 7.15684 6.17705 6.51184 6.93927 6.51184C7.70148 6.51184 8.31945 7.15684 8.31945 7.9524Z" fill="white"/>
</svg>
